
<svg xmlns="http://www.w3.org/2000/svg" width="515.545" height="392.873" viewBox="0 0 515.545 392.873">
  <g id="Group_1840" data-name="Group 1840" transform="translate(-2353.435 -1080.969)">
    <g id="Group_1505" data-name="Group 1505" transform="translate(2399.121 1166.971)" opacity="0.07">
      <g id="Group_1504" data-name="Group 1504" transform="translate(0 0)">
        <path id="Path_4989" data-name="Path 4989" d="M2648.525,1564.4v-10.7a1.232,1.232,0,0,0-1.232-1.232h-3.079a1.24,1.24,0,0,1-1.17-.855,22.993,22.993,0,0,0-1.355-3.172,1.241,1.241,0,0,1,.211-1.456l2.208-2.208a1.233,1.233,0,0,0,0-1.743l-7.569-7.568a1.232,1.232,0,0,0-1.743,0l-2.316,2.316a1.232,1.232,0,0,1-1.426.221,22.8,22.8,0,0,0-3.079-1.251,1.235,1.235,0,0,1-.87-1.17v-3.3a1.232,1.232,0,0,0-1.232-1.232h-10.7a1.233,1.233,0,0,0-1.233,1.232v3.3a1.235,1.235,0,0,1-.869,1.17A22.8,22.8,0,0,0,2610,1538a1.233,1.233,0,0,1-1.426-.221l-2.316-2.316a1.233,1.233,0,0,0-1.743,0l-7.568,7.568a1.233,1.233,0,0,0,0,1.743l2.207,2.208a1.241,1.241,0,0,1,.211,1.456,22.98,22.98,0,0,0-1.355,3.172,1.241,1.241,0,0,1-1.17.855h-3.079a1.233,1.233,0,0,0-1.233,1.232v10.7a1.233,1.233,0,0,0,1.233,1.232h2.87a1.241,1.241,0,0,1,1.179.888,23.154,23.154,0,0,0,1.348,3.381,1.239,1.239,0,0,1-.222,1.431l-1.99,1.99a1.232,1.232,0,0,0,0,1.743l7.568,7.569a1.232,1.232,0,0,0,1.743,0l1.883-1.883a1.24,1.24,0,0,1,1.456-.209,22.42,22.42,0,0,0,3.476,1.455,1.24,1.24,0,0,1,.875,1.175v2.648a1.233,1.233,0,0,0,1.233,1.233h10.7a1.232,1.232,0,0,0,1.232-1.233v-2.649a1.24,1.24,0,0,1,.873-1.174,22.673,22.673,0,0,0,3.479-1.455,1.239,1.239,0,0,1,1.455.209l1.884,1.884a1.232,1.232,0,0,0,1.743,0l7.569-7.569a1.232,1.232,0,0,0,0-1.743l-1.99-1.99a1.24,1.24,0,0,1-.223-1.431,23.128,23.128,0,0,0,1.348-3.381,1.241,1.241,0,0,1,1.179-.888h2.87A1.232,1.232,0,0,0,2648.525,1564.4Zm-15.6-2.263a12.553,12.553,0,0,1-1.337,3.5,12.763,12.763,0,0,1-4.479,4.61,13.227,13.227,0,0,1-3.292,1.409,12.919,12.919,0,0,1-6.576,0,12.637,12.637,0,0,1-7.771-6.019,12.554,12.554,0,0,1-1.337-3.5,12.428,12.428,0,0,1-.3-2.766,12.728,12.728,0,0,1,6.12-10.872,12.82,12.82,0,0,1,3.82-1.52,12.273,12.273,0,0,1,2.756-.3,12.429,12.429,0,0,1,2.766.3,12.656,12.656,0,0,1,9.939,12.392A12.414,12.414,0,0,1,2632.921,1562.134Z" transform="translate(-2592.524 -1531.048)" fill="#4084f3"/>
      </g>
    </g>
    <g id="Group_1507" data-name="Group 1507" transform="translate(2444.938 1108.396)">
      <g id="Group_1506" data-name="Group 1506" transform="translate(0)">
        <rect id="Rectangle_2543" data-name="Rectangle 2543" width="192.992" height="306.232" rx="1.367" fill="#fff"/>
      </g>
    </g>
    <g id="Group_1535" data-name="Group 1535" transform="translate(2390.054 1396.633)" opacity="0.32">
      <g id="Group_1516" data-name="Group 1516" transform="translate(29.192 32.547)">
        <g id="Group_1512" data-name="Group 1512">
          <g id="Group_1509" data-name="Group 1509" transform="translate(0.44 0.448)">
            <g id="Group_1508" data-name="Group 1508">
              <path id="Path_4990" data-name="Path 4990" d="M2700.948,2946.748c-1.723-7.7-.383-11.134,1.407-12.8,2.193-2.045,4.873-1.259,6.443-3.671,1.936-2.974-1.15-5.688.5-9.034,1.759-3.571,6.274-2.508,9.064-6.171,1.443-1.894,2.243-4.814,1.368-9.452,5.488,8.108,5.377,12.41,4.139,14.855-1.275,2.519-3.453,2.492-4.961,5.8-1.833,4.025.292,6.464-1.221,10.19-.5,1.227-2.663,2.819-6.775,6.1-2.679,2.139-4.919,3.7-4.726,5.643.022.222-.374.38-.878.505a3.365,3.365,0,0,1-3.441-1.3A2.576,2.576,0,0,0,2700.948,2946.748Z" transform="translate(-2700.149 -2905.617)" fill="#fff"/>
            </g>
          </g>
          <g id="Group_1511" data-name="Group 1511">
            <g id="Group_1510" data-name="Group 1510">
              <path id="Path_4991" data-name="Path 4991" d="M2702.705,2947.359a3.912,3.912,0,0,1-3.053-1.568,2.227,2.227,0,0,0-.764-.538.449.449,0,0,1-.24-.3c-1.448-6.475-.93-10.926,1.539-13.229a7.961,7.961,0,0,1,3.332-1.706,4.819,4.819,0,0,0,3.041-1.882c.885-1.362.6-2.644.275-4.129a6.876,6.876,0,0,1,.2-4.858c.982-1.993,2.783-2.67,4.527-3.324a9.25,9.25,0,0,0,4.583-2.92c1.595-2.095,2.028-5.156,1.283-9.1a.448.448,0,0,1,.811-.334c4.524,6.683,5.927,11.834,4.169,15.308a7.519,7.519,0,0,1-2.286,2.57,8.024,8.024,0,0,0-2.667,3.217,9.527,9.527,0,0,0-.676,5.2,10.164,10.164,0,0,1-.538,4.978c-.476,1.173-2.115,2.473-5.38,5.065l-2.25,1.787c-2.23,1.763-3.992,3.156-3.841,4.679.066.662-.8.88-1.213.985A3.537,3.537,0,0,1,2702.705,2947.359Zm-3.227-2.809a2.741,2.741,0,0,1,.876.686,2.9,2.9,0,0,0,2.982,1.149,2.724,2.724,0,0,0,.529-.175c-.093-1.938,1.8-3.437,4.188-5.322l2.249-1.786c2.942-2.335,4.719-3.745,5.107-4.7a9.328,9.328,0,0,0,.474-4.576,10.391,10.391,0,0,1,.754-5.632,8.9,8.9,0,0,1,2.922-3.545,6.612,6.612,0,0,0,2.048-2.275c1.456-2.877.443-7.146-3.01-12.707.3,3.246-.278,5.856-1.742,7.776a10.1,10.1,0,0,1-4.98,3.217c-1.725.648-3.214,1.207-4.038,2.881a6,6,0,0,0-.126,4.271c.341,1.542.692,3.135-.4,4.81a5.668,5.668,0,0,1-3.526,2.25,7.133,7.133,0,0,0-2.987,1.5C2698.6,2934.424,2698.158,2938.52,2699.478,2944.55Z" transform="translate(-2697.847 -2903.273)" fill="#0dacfd"/>
            </g>
          </g>
        </g>
        <g id="Group_1515" data-name="Group 1515" transform="translate(3.959 13.355)">
          <g id="Group_1514" data-name="Group 1514">
            <g id="Group_1513" data-name="Group 1513">
              <path id="Path_4992" data-name="Path 4992" d="M2719.147,2999.468a.448.448,0,0,1-.441-.375,8.592,8.592,0,0,1,.41-4.635c.993-2.506,2.947-3.562,4.834-4.583,1.679-.908,3.264-1.765,4.029-3.611a6.226,6.226,0,0,0-.012-4.227,6.184,6.184,0,0,1,.167-4.729c1.063-2.062,3.4-3.454,6.942-4.137a.448.448,0,1,1,.169.88c-3.26.628-5.385,1.863-6.316,3.667-.747,1.45-.444,2.68-.094,4.1a7.123,7.123,0,0,1-.03,4.784c-.887,2.139-2.688,3.113-4.43,4.055-1.828.988-3.555,1.922-4.429,4.127a7.7,7.7,0,0,0-.358,4.156.448.448,0,0,1-.369.516A.429.429,0,0,1,2719.147,2999.468Z" transform="translate(-2718.564 -2973.165)" fill="#0dacfd"/>
            </g>
          </g>
        </g>
      </g>
      <g id="Group_1525" data-name="Group 1525" transform="translate(0 32.65)">
        <g id="Group_1521" data-name="Group 1521">
          <g id="Group_1518" data-name="Group 1518" transform="translate(0.455 0.448)">
            <g id="Group_1517" data-name="Group 1517">
              <path id="Path_4993" data-name="Path 4993" d="M2573.186,2947.392c2.909-8.265,1.637-11.737-.369-13.3-2.457-1.918-5.806-.81-7.466-3.179-2.047-2.921,2-6.1.342-9.438-1.769-3.567-7.383-1.975-10.4-5.53-1.559-1.839-2.227-4.822-.674-9.785-7.54,9.094-7.857,13.6-6.606,16.041,1.289,2.512,3.946,2.256,5.436,5.575,1.812,4.035-1.035,6.821.417,10.577.479,1.237,2.949,2.681,7.616,5.7,3.04,1.965,5.606,3.37,5.166,5.432-.05.235.687.009,1.288.089a4.454,4.454,0,0,0,4.06-1.383A4.039,4.039,0,0,1,2573.186,2947.392Z" transform="translate(-2547.457 -2906.158)" fill="#fff"/>
            </g>
          </g>
          <g id="Group_1520" data-name="Group 1520">
            <g id="Group_1519" data-name="Group 1519">
              <path id="Path_4994" data-name="Path 4994" d="M2566.776,2948.172a6.43,6.43,0,0,1-.823-.056,3.418,3.418,0,0,0-.675.007c-.377.027-.677.05-.879-.182a.6.6,0,0,1-.114-.452c.336-1.571-1.646-2.836-4.154-4.439l-2.552-1.64c-3.719-2.387-5.587-3.585-6.056-4.795a8.976,8.976,0,0,1-.136-5.207,8.227,8.227,0,0,0-.271-5.348,6.689,6.689,0,0,0-2.885-3.066,6.443,6.443,0,0,1-2.541-2.488c-1.813-3.533.366-8.941,6.661-16.532a.448.448,0,0,1,.772.42c-1.316,4.2-1.119,7.351.586,9.362,1.375,1.619,3.355,2.106,5.271,2.575,2.153.528,4.187,1.028,5.188,3.046.895,1.8.28,3.568-.262,5.124-.552,1.584-1.029,2.952-.115,4.256.8,1.137,2.05,1.371,3.5,1.642a8.5,8.5,0,0,1,3.875,1.441c2.8,2.183,2.969,6.828.515,13.8a.45.45,0,0,1-.225.254,3.69,3.69,0,0,0-1.057.7A4.792,4.792,0,0,1,2566.776,2948.172Zm-1.069-.967a2.76,2.76,0,0,1,.363.022,3.987,3.987,0,0,0,3.675-1.246,4.122,4.122,0,0,1,1.151-.805c2.251-6.478,2.158-10.726-.281-12.63a7.692,7.692,0,0,0-3.489-1.268c-1.506-.281-3.062-.572-4.069-2.008-1.176-1.68-.577-3.4,0-5.065.531-1.524,1.032-2.964.3-4.431-.815-1.645-2.568-2.075-4.6-2.573-1.959-.481-4.179-1.027-5.74-2.867-1.616-1.9-2.052-4.642-1.3-8.156-4.958,6.347-6.72,11.025-5.236,13.917a5.571,5.571,0,0,0,2.232,2.146,7.528,7.528,0,0,1,3.214,3.449,9.07,9.07,0,0,1,.335,5.878,8.144,8.144,0,0,0,.092,4.721c.362.937,2.373,2.227,5.7,4.364l2.55,1.64c2.6,1.664,4.7,3,4.607,4.933C2565.367,2947.218,2565.534,2947.206,2565.708,2947.206Zm5.551-1.71h0Z" transform="translate(-2545.074 -2903.813)" fill="#0dacfd"/>
            </g>
          </g>
        </g>
        <g id="Group_1524" data-name="Group 1524" transform="translate(5.115 14.087)">
          <g id="Group_1523" data-name="Group 1523">
            <g id="Group_1522" data-name="Group 1522">
              <path id="Path_4995" data-name="Path 4995" d="M2589.137,3003.436a.418.418,0,0,1-.124-.018.448.448,0,0,1-.307-.554,6.755,6.755,0,0,0,.005-4.3c-.821-2.191-2.818-2.987-4.934-3.83-2.032-.81-4.135-1.648-5-3.832-.741-1.865-.1-3.56.461-5.055.575-1.527,1.071-2.844.328-4.26-.935-1.781-3.394-2.845-7.309-3.164a.448.448,0,0,1-.409-.483.441.441,0,0,1,.483-.409c4.241.344,6.942,1.569,8.028,3.64.931,1.772.314,3.409-.282,4.992-.556,1.474-1.079,2.866-.466,4.409.726,1.825,2.56,2.557,4.5,3.33,2.2.879,4.481,1.787,5.441,4.348a7.628,7.628,0,0,1,.017,4.859A.449.449,0,0,1,2589.137,3003.436Z" transform="translate(-2571.844 -2977.533)" fill="#0dacfd"/>
            </g>
          </g>
        </g>
      </g>
      <g id="Group_1534" data-name="Group 1534" transform="translate(16.468 0)">
        <g id="Group_1530" data-name="Group 1530">
          <g id="Group_1527" data-name="Group 1527" transform="translate(0.438 0.448)">
            <g id="Group_1526" data-name="Group 1526">
              <path id="Path_4996" data-name="Path 4996" d="M2641.428,2811.457c-8.233-10.431-8.707-16.631-7.208-20.471,1.837-4.706,6.481-5.468,7.1-10.277.77-5.93-5.9-7.8-5.836-14.084.065-6.708,7.7-8.388,9.262-15.987.808-3.93-.108-8.949-4.822-15.352,14.253,8.308,17.224,14.921,17.129,19.539-.1,4.756-3.425,6.306-3.3,12.435.154,7.45,5.161,9.6,5.583,16.367.139,2.227-1.987,6.224-5.836,14.21-2.508,5.2-4.77,9.209-3.058,12.019a4.769,4.769,0,0,0,1.919,1.715Z" transform="translate(-2633.551 -2735.286)" fill="#fff"/>
            </g>
          </g>
          <g id="Group_1529" data-name="Group 1529">
            <g id="Group_1528" data-name="Group 1528">
              <path id="Path_4997" data-name="Path 4997" d="M2650.511,2810.125h0l-10.938-.115a.448.448,0,0,1-.347-.171c-6.854-8.682-9.3-15.718-7.274-20.911a12.985,12.985,0,0,1,3.739-4.909c1.621-1.509,3.021-2.812,3.34-5.263.368-2.84-1.1-4.714-2.658-6.7-1.58-2.015-3.214-4.1-3.182-7.332.035-3.62,2.137-5.817,4.363-8.142,2.051-2.143,4.173-4.359,4.908-7.931.912-4.435-.684-9.481-4.744-15a.448.448,0,0,1,.586-.653c11.646,6.789,17.484,13.5,17.351,19.936a12.251,12.251,0,0,1-1.566,5.445,13.772,13.772,0,0,0-1.732,6.97c.078,3.775,1.464,6.193,2.805,8.532a16.9,16.9,0,0,1,2.777,7.818c.127,2.051-1.4,5.2-4.446,11.469q-.671,1.382-1.435,2.963l-.674,1.389c-2.141,4.39-3.834,7.858-2.405,10.2a4.3,4.3,0,0,0,1.742,1.549.448.448,0,0,1-.206.846Zm-10.719-1.008,9.261.1a4.7,4.7,0,0,1-.843-1.019c-1.685-2.765.1-6.427,2.364-11.063l.673-1.384q.764-1.585,1.436-2.966c2.882-5.937,4.471-9.207,4.357-11.022-.2-3.13-1.393-5.218-2.661-7.428-1.4-2.437-2.841-4.956-2.923-8.958a14.736,14.736,0,0,1,1.82-7.377,11.508,11.508,0,0,0,1.479-5.077c.119-5.761-4.966-11.838-15.123-18.076,3.326,5.069,4.571,9.767,3.7,13.988-.786,3.825-3.1,6.239-5.137,8.37-2.192,2.288-4.083,4.265-4.115,7.531-.029,2.92,1.506,4.877,2.991,6.77,1.6,2.043,3.259,4.155,2.842,7.367-.36,2.771-1.943,4.244-3.619,5.8a12.265,12.265,0,0,0-3.514,4.579C2630.89,2794.1,2633.249,2800.78,2639.792,2809.117Z" transform="translate(-2631.257 -2732.944)" fill="#0dacfd"/>
            </g>
          </g>
        </g>
        <g id="Group_1533" data-name="Group 1533" transform="translate(8.501 19.89)">
          <g id="Group_1532" data-name="Group 1532">
            <g id="Group_1531" data-name="Group 1531">
              <path id="Path_4998" data-name="Path 4998" d="M2678.849,2888.2a.451.451,0,0,1-.367-.19,14.17,14.17,0,0,1-2.706-7.184c-.312-4.42,1.849-7.4,3.94-10.289,1.919-2.648,3.732-5.151,3.542-8.619-.162-2.935-1.693-4.792-3.174-6.588-1.582-1.917-3.218-3.9-3.128-7.1.106-3.807,2.6-7.545,7.4-11.111a.448.448,0,1,1,.534.719c-4.573,3.394-6.941,6.9-7.039,10.416-.081,2.864,1.378,4.634,2.924,6.507,1.573,1.907,3.2,3.879,3.376,7.108.208,3.786-1.785,6.536-3.711,9.194-2,2.756-4.061,5.6-3.771,9.7a13.275,13.275,0,0,0,2.545,6.73.448.448,0,0,1-.366.706Z" transform="translate(-2675.747 -2837.033)" fill="#0dacfd"/>
            </g>
          </g>
        </g>
      </g>
    </g>
    <g id="Group_1609" data-name="Group 1609" transform="translate(2444.315 1107.773)">
      <g id="Group_1538" data-name="Group 1538" transform="translate(0 0)" opacity="0.5">
        <g id="Group_1536" data-name="Group 1536" transform="translate(0.622 0.623)">
          <rect id="Rectangle_2544" data-name="Rectangle 2544" width="192.992" height="306.232" rx="1.367" fill="#fff"/>
        </g>
        <g id="Group_1537" data-name="Group 1537">
          <path id="Path_4999" data-name="Path 4999" d="M3020.954,1528.721H2831.366a2.328,2.328,0,0,1-2.325-2.325V1223.569a2.328,2.328,0,0,1,2.325-2.325h189.588a2.327,2.327,0,0,1,2.324,2.325V1526.4A2.327,2.327,0,0,1,3020.954,1528.721ZM2831.366,1222.49a1.081,1.081,0,0,0-1.079,1.08V1526.4a1.081,1.081,0,0,0,1.079,1.08h189.588a1.081,1.081,0,0,0,1.079-1.08V1223.569a1.081,1.081,0,0,0-1.079-1.08Z" transform="translate(-2829.041 -1221.244)" fill="#0dacfd"/>
        </g>
      </g>
      <g id="Group_1541" data-name="Group 1541" transform="translate(15.433 18.122)" opacity="0.5">
        <g id="Group_1539" data-name="Group 1539" transform="translate(0.623 0.623)">
          <rect id="Rectangle_2545" data-name="Rectangle 2545" width="162.126" height="274.398" rx="1.367" fill="#fff"/>
        </g>
        <g id="Group_1540" data-name="Group 1540">
          <path id="Path_5000" data-name="Path 5000" d="M3070.852,1591.725H2912.131a2.328,2.328,0,0,1-2.325-2.325V1318.406a2.327,2.327,0,0,1,2.325-2.325h158.721a2.328,2.328,0,0,1,2.325,2.325V1589.4A2.328,2.328,0,0,1,3070.852,1591.725Zm-158.721-274.4a1.081,1.081,0,0,0-1.079,1.08V1589.4a1.08,1.08,0,0,0,1.079,1.08h158.721a1.081,1.081,0,0,0,1.08-1.08V1318.406a1.081,1.081,0,0,0-1.08-1.08Z" transform="translate(-2909.806 -1316.081)" fill="#0dacfd"/>
        </g>
      </g>
      <g id="Group_2220" data-name="Group 2220" transform="translate(0 13)">
        <g id="Group_2219" data-name="Group 2219" transform="translate(0 -8)">
          <g id="Group_1544" data-name="Group 1544" transform="translate(64.733 33.56)" opacity="0.5">
            <g id="Group_1542" data-name="Group 1542" transform="translate(0.469 0.47)">
              <path id="Path_5001" data-name="Path 5001" d="M3174.056,1482.328a30.7,30.7,0,1,1-30.7-30.7A30.549,30.549,0,0,1,3174.056,1482.328Z" transform="translate(-3112.661 -1451.63)" fill="#fff"/>
            </g>
            <g id="Group_1543" data-name="Group 1543" transform="translate(0 0)">
              <path id="Path_5002" data-name="Path 5002" d="M3140.57,1510.706a31.177,31.177,0,1,1,24.72-12.192A31.042,31.042,0,0,1,3140.57,1510.706Zm0-61.4a30.262,30.262,0,0,0-30.228,30.228,30.228,30.228,0,0,0,60.456,0A30.262,30.262,0,0,0,3140.57,1449.31Z" transform="translate(-3109.403 -1448.371)" fill="#0dacfd"/>
            </g>
          </g>
          <g id="Group_1546" data-name="Group 1546" transform="translate(85.621 46.108)" opacity="0.5">
            <g id="Group_1545" data-name="Group 1545" transform="translate(0 0)">
              <ellipse id="Ellipse_87" data-name="Ellipse 87" cx="10.494" cy="10.494" rx="10.494" ry="10.494" fill="#0dacfd"/>
            </g>
          </g>
          <g id="Group_1548" data-name="Group 1548" transform="translate(72.191 67.097)" opacity="0.5">
            <g id="Group_1547" data-name="Group 1547" transform="translate(0 0)">
              <path id="Path_5003" data-name="Path 5003" d="M3208.857,1697.172a30.248,30.248,0,0,1-47.7.374,25.619,25.619,0,0,1,47.7-.374Z" transform="translate(-3161.16 -1681.095)" fill="#0dacfd"/>
            </g>
          </g>
        </g>
        <g id="Group_1551" data-name="Group 1551" transform="translate(30.47 146.63)" opacity="0.5">
          <g id="Group_1549" data-name="Group 1549" transform="translate(0.623 0.623)">
            <rect id="Rectangle_2546" data-name="Rectangle 2546" width="134.562" height="25.419" rx="1.386" fill="#fff"/>
          </g>
          <g id="Group_1550" data-name="Group 1550">
            <path id="Path_5004" data-name="Path 5004" d="M3121.955,2015.275h-131.11a2.351,2.351,0,0,1-2.348-2.348v-21.969a2.35,2.35,0,0,1,2.348-2.348h131.11a2.35,2.35,0,0,1,2.348,2.348v21.969A2.351,2.351,0,0,1,3121.955,2015.275Zm-131.11-25.419a1.1,1.1,0,0,0-1.1,1.1v21.969a1.1,1.1,0,0,0,1.1,1.1h131.11a1.1,1.1,0,0,0,1.1-1.1v-21.969a1.1,1.1,0,0,0-1.1-1.1Z" transform="translate(-2988.496 -1988.61)" fill="#0dacfd"/>
          </g>
        </g>
        <g id="Group_1554" data-name="Group 1554" transform="translate(30.47 192.9)" opacity="0.5">
          <g id="Group_1552" data-name="Group 1552" transform="translate(0.623 0.623)">
            <rect id="Rectangle_2547" data-name="Rectangle 2547" width="134.562" height="25.419" rx="1.386" fill="#fff"/>
          </g>
          <g id="Group_1553" data-name="Group 1553">
            <path id="Path_5005" data-name="Path 5005" d="M3121.955,2257.42h-131.11a2.351,2.351,0,0,1-2.348-2.348V2233.1a2.351,2.351,0,0,1,2.348-2.349h131.11a2.351,2.351,0,0,1,2.348,2.349v21.968A2.351,2.351,0,0,1,3121.955,2257.42ZM2990.844,2232a1.1,1.1,0,0,0-1.1,1.1v21.968a1.1,1.1,0,0,0,1.1,1.1h131.11a1.1,1.1,0,0,0,1.1-1.1V2233.1a1.1,1.1,0,0,0-1.1-1.1Z" transform="translate(-2988.496 -2230.755)" fill="#0dacfd"/>
          </g>
        </g>
        <g id="Group_1602" data-name="Group 1602" transform="translate(54.204 239.793)" opacity="0.5">
          <g id="Group_1601" data-name="Group 1601">
            <rect id="Rectangle_2552" data-name="Rectangle 2552" width="83.026" height="19.567" rx="7.856" fill="#0dacfd"/>
          </g>
        </g>
        <text id="SIGNUP" transform="translate(75.12 254.728)" fill="#fff" font-size="11" font-family="HelveticaNeue-Bold, Helvetica Neue" font-weight="700"><tspan x="0" y="0">SIGNUP</tspan></text>
        <g id="Group_2218" data-name="Group 2218" transform="translate(30.47 99.63)" opacity="0.5">
          <g id="Group_1549-2" data-name="Group 1549" transform="translate(0.623 0.623)">
            <rect id="Rectangle_2546-2" data-name="Rectangle 2546" width="134.562" height="25.419" rx="1.386" fill="#fff"/>
          </g>
          <g id="Group_1550-2" data-name="Group 1550">
            <path id="Path_5004-2" data-name="Path 5004" d="M3121.955,2015.275h-131.11a2.351,2.351,0,0,1-2.348-2.348v-21.969a2.35,2.35,0,0,1,2.348-2.348h131.11a2.35,2.35,0,0,1,2.348,2.348v21.969A2.351,2.351,0,0,1,3121.955,2015.275Zm-131.11-25.419a1.1,1.1,0,0,0-1.1,1.1v21.969a1.1,1.1,0,0,0,1.1,1.1h131.11a1.1,1.1,0,0,0,1.1-1.1v-21.969a1.1,1.1,0,0,0-1.1-1.1Z" transform="translate(-2988.496 -1988.61)" fill="#0dacfd"/>
          </g>
        </g>
      </g>
    </g>
    <g id="Group_1611" data-name="Group 1611" transform="translate(2651.176 1105.628)" opacity="0.07">
      <g id="Group_1610" data-name="Group 1610" transform="translate(0 0)">
        <path id="Path_5025" data-name="Path 5025" d="M3967.612,1243.365v-10.7a1.232,1.232,0,0,0-1.232-1.233H3963.3a1.241,1.241,0,0,1-1.17-.855,22.969,22.969,0,0,0-1.355-3.171,1.242,1.242,0,0,1,.21-1.457l2.207-2.207a1.232,1.232,0,0,0,0-1.743l-7.569-7.569a1.232,1.232,0,0,0-1.743,0l-2.316,2.316a1.233,1.233,0,0,1-1.426.221,22.789,22.789,0,0,0-3.079-1.251,1.234,1.234,0,0,1-.869-1.17v-3.3a1.233,1.233,0,0,0-1.232-1.232h-10.7a1.232,1.232,0,0,0-1.232,1.232v3.3a1.234,1.234,0,0,1-.869,1.17,22.773,22.773,0,0,0-3.079,1.251,1.234,1.234,0,0,1-1.426-.221l-2.316-2.316a1.232,1.232,0,0,0-1.743,0l-7.569,7.569a1.232,1.232,0,0,0,0,1.743l2.207,2.207a1.241,1.241,0,0,1,.211,1.456,22.95,22.95,0,0,0-1.355,3.172,1.241,1.241,0,0,1-1.17.855h-3.079a1.233,1.233,0,0,0-1.233,1.233v10.7a1.232,1.232,0,0,0,1.233,1.232h2.87a1.24,1.24,0,0,1,1.179.888,23.094,23.094,0,0,0,1.349,3.381,1.241,1.241,0,0,1-.223,1.431l-1.99,1.99a1.232,1.232,0,0,0,0,1.743l7.569,7.569a1.233,1.233,0,0,0,1.743,0l1.883-1.884a1.24,1.24,0,0,1,1.456-.209,22.493,22.493,0,0,0,3.477,1.456,1.239,1.239,0,0,1,.875,1.174v2.648a1.232,1.232,0,0,0,1.232,1.232h10.7a1.232,1.232,0,0,0,1.232-1.232v-2.649a1.239,1.239,0,0,1,.873-1.174,22.666,22.666,0,0,0,3.479-1.455,1.24,1.24,0,0,1,1.456.209l1.883,1.884a1.233,1.233,0,0,0,1.743,0l7.569-7.569a1.232,1.232,0,0,0,0-1.743l-1.99-1.99a1.239,1.239,0,0,1-.222-1.431,23.2,23.2,0,0,0,1.348-3.381,1.241,1.241,0,0,1,1.179-.888h2.87A1.232,1.232,0,0,0,3967.612,1243.365Zm-15.6-2.263a12.557,12.557,0,0,1-1.338,3.5,12.763,12.763,0,0,1-4.478,4.61,13.229,13.229,0,0,1-3.293,1.408,12.914,12.914,0,0,1-6.576,0,12.637,12.637,0,0,1-7.772-6.019,12.556,12.556,0,0,1-1.337-3.5,12.416,12.416,0,0,1-.3-2.766,12.728,12.728,0,0,1,6.12-10.872,12.816,12.816,0,0,1,3.82-1.52,12.278,12.278,0,0,1,2.756-.3,12.435,12.435,0,0,1,2.766.3,12.659,12.659,0,0,1,9.94,12.392A12.445,12.445,0,0,1,3952.009,1241.1Z" transform="translate(-3911.611 -1210.016)" fill="#4084f3"/>
      </g>
    </g>
    <g id="Group_1630" data-name="Group 1630" transform="translate(2737.743 1337.295)" opacity="0.32">
      <g id="Group_1617" data-name="Group 1617" transform="translate(51.219 56.318)">
        <g id="Group_1614" data-name="Group 1614">
          <g id="Group_1612" data-name="Group 1612" transform="translate(0.609 2.839)">
            <path id="Path_5026" data-name="Path 5026" d="M4637.287,2804.16c-3.023-13.5-.671-19.536,2.468-22.464,3.847-3.588,8.549-2.208,11.3-6.441,3.4-5.219-2.018-9.981.874-15.851,3.087-6.266,11.009-4.4,15.9-10.826,2.532-3.324,3.935-8.448,2.4-16.584,9.629,14.226,9.435,21.773,7.263,26.064-2.237,4.419-6.058,4.373-8.7,10.182-3.216,7.061.512,11.341-2.142,17.879-.875,2.153-4.672,4.945-11.887,10.7-4.7,3.752-8.63,6.492-8.292,9.9.039.388-.655.666-1.54.887a5.9,5.9,0,0,1-6.038-2.29A4.517,4.517,0,0,0,4637.287,2804.16Z" transform="translate(-4635.885 -2731.995)" fill="#fff"/>
          </g>
          <g id="Group_1613" data-name="Group 1613">
            <path id="Path_5027" data-name="Path 5027" d="M4641.057,2796.381a6.707,6.707,0,0,1-5.229-2.688,4.048,4.048,0,0,0-1.4-.991l-.266-.131-.065-.291c-2.529-11.3-1.636-19.055,2.652-23.054a13.832,13.832,0,0,1,5.782-2.957c2.173-.676,4.05-1.259,5.423-3.369,1.591-2.445,1.065-4.837.505-7.369-.579-2.63-1.179-5.348.333-8.417,1.693-3.438,4.685-4.562,7.853-5.751,2.871-1.078,5.84-2.193,8.114-5.177,2.829-3.714,3.6-9.129,2.282-16.092l-.558-2.954,1.686,2.49c7.9,11.674,10.36,20.655,7.3,26.694a13.04,13.04,0,0,1-3.969,4.456,14.219,14.219,0,0,0-4.725,5.7c-1.613,3.541-1.413,6.289-1.2,9.2a17.7,17.7,0,0,1-.932,8.659c-.819,2.019-3.685,4.293-9.394,8.823l-3.936,3.128c-3.956,3.126-7.08,5.595-6.805,8.356.1,1.026-1.325,1.383-2.009,1.554A5.964,5.964,0,0,1,4641.057,2796.381Zm-5.805-4.658a4.741,4.741,0,0,1,1.556,1.2,5.268,5.268,0,0,0,5.4,2.07,3.86,3.86,0,0,0,1.059-.373c-.231-3.366,3.092-5.993,7.285-9.3l3.934-3.127c5.362-4.256,8.316-6.6,9.015-8.317,1.214-2.991,1.033-5.473.843-8.1-.214-2.937-.435-5.974,1.31-9.8a15.477,15.477,0,0,1,5.079-6.159,11.86,11.86,0,0,0,3.636-4.046c2.633-5.2.728-12.95-5.66-23.049.682,5.978-.307,10.756-2.953,14.227-2.49,3.271-5.771,4.5-8.666,5.59-3.058,1.148-5.7,2.139-7.175,5.135-1.317,2.678-.792,5.069-.232,7.6.589,2.671,1.2,5.433-.678,8.315-1.618,2.487-3.9,3.2-6.1,3.88a12.656,12.656,0,0,0-5.3,2.677C4633.692,2773.78,4632.9,2781.042,4635.251,2791.723Z" transform="translate(-4632.695 -2717.14)" fill="#0dacfd"/>
          </g>
        </g>
        <g id="Group_1616" data-name="Group 1616" transform="translate(6.947 25.648)">
          <g id="Group_1615" data-name="Group 1615">
            <path id="Path_5028" data-name="Path 5028" d="M4669.912,2897.187a.622.622,0,0,1-.613-.521,14.9,14.9,0,0,1,.709-8.046c1.72-4.342,5.121-6.18,8.408-7.958,2.971-1.607,5.778-3.125,7.143-6.415,1.153-2.78.586-5.081-.015-7.518-.626-2.541-1.273-5.168.279-8.184,1.84-3.569,5.9-5.981,12.066-7.172a.623.623,0,0,1,.236,1.224c-5.772,1.114-9.539,3.307-11.2,6.52-1.338,2.6-.774,4.889-.177,7.314.623,2.524,1.266,5.135-.044,8.292-1.534,3.7-4.669,5.394-7.7,7.034-3.233,1.749-6.288,3.4-7.843,7.323a13.676,13.676,0,0,0-.639,7.382.623.623,0,0,1-.512.717A.637.637,0,0,1,4669.912,2897.187Z" transform="translate(-4669.053 -2851.363)" fill="#0dacfd"/>
          </g>
        </g>
      </g>
      <g id="Group_1623" data-name="Group 1623" transform="translate(0 56.505)">
        <g id="Group_1620" data-name="Group 1620">
          <g id="Group_1618" data-name="Group 1618" transform="translate(0.637 2.833)">
            <path id="Path_5029" data-name="Path 5029" d="M4413.127,2805.291c5.1-14.5,2.872-20.593-.647-23.339-4.311-3.365-10.187-1.422-13.1-5.578-3.591-5.125,3.507-10.7.6-16.559-3.1-6.258-12.954-3.466-18.244-9.7-2.736-3.225-3.908-8.461-1.182-17.169-13.23,15.957-13.787,23.864-11.59,28.144,2.262,4.407,6.923,3.957,9.538,9.781,3.177,7.08-1.816,11.968.731,18.558.839,2.17,5.175,4.7,13.363,10,5.333,3.447,9.835,5.912,9.063,9.529-.088.412,1.205.017,2.26.156a7.814,7.814,0,0,0,7.122-2.427A7.112,7.112,0,0,1,4413.127,2805.291Z" transform="translate(-4367.983 -2732.944)" fill="#fff"/>
          </g>
          <g id="Group_1619" data-name="Group 1619">
            <path id="Path_5030" data-name="Path 5030" d="M4402.562,2797.831a10.716,10.716,0,0,1-1.421-.1,6.143,6.143,0,0,0-1.218.012c-.642.049-1.1.084-1.407-.264l-.2-.236.044-.417c.61-2.866-2.909-5.113-7.365-7.959l-4.46-2.866c-6.506-4.176-9.771-6.271-10.574-8.344-1.282-3.315-.748-6.229-.232-9.048.56-3.066,1.091-5.961-.488-9.479a11.883,11.883,0,0,0-5.122-5.45,11.176,11.176,0,0,1-4.4-4.3c-3.147-6.134.669-15.562,11.666-28.826l2.019-2.435-.945,3.018c-2.326,7.429-1.969,13.008,1.061,16.581,2.445,2.881,5.947,3.739,9.334,4.571,3.74.919,7.271,1.785,8.993,5.258,1.54,3.1.475,6.164-.466,8.865-.983,2.821-1.831,5.257-.182,7.612,1.437,2.049,3.665,2.465,6.244,2.948,2.28.426,4.637.865,6.728,2.5,4.848,3.782,5.134,11.87.852,24.036l-.084.24-.229.112a6.716,6.716,0,0,0-1.9,1.259A8.252,8.252,0,0,1,4402.562,2797.831Zm-1.873-1.368a4.769,4.769,0,0,1,.615.037,7.156,7.156,0,0,0,6.587-2.235,7.317,7.317,0,0,1,2.032-1.408c4-11.473,3.824-19.01-.525-22.4-1.85-1.445-4.057-1.857-6.19-2.256-2.609-.488-5.308-.991-7.035-3.456-2.017-2.876-.979-5.856.024-8.737.944-2.709,1.835-5.267.527-7.9-1.464-2.954-4.574-3.718-8.175-4.6-3.413-.836-7.28-1.786-9.985-4.975-2.906-3.425-3.606-8.418-2.1-14.869-9.082,11.48-12.326,19.937-9.647,25.156a10.024,10.024,0,0,0,3.972,3.828,13.075,13.075,0,0,1,5.579,5.983c1.737,3.872,1.147,7.1.576,10.215-.506,2.771-.984,5.388.17,8.374.654,1.7,4.2,3.972,10.083,7.746l4.459,2.865c4.606,2.942,8.295,5.3,8,8.7l.17-.013C4400.086,2796.485,4400.383,2796.463,4400.689,2796.463Z" transform="translate(-4364.647 -2718.12)" fill="#0dacfd"/>
          </g>
        </g>
        <g id="Group_1622" data-name="Group 1622" transform="translate(8.977 26.924)">
          <g id="Group_1621" data-name="Group 1621">
            <path id="Path_5031" data-name="Path 5031" d="M4441.806,2904.144a.607.607,0,0,1-.173-.024.624.624,0,0,1-.426-.771,12.028,12.028,0,0,0,.006-7.641c-1.466-3.911-5-5.321-8.749-6.813-3.533-1.409-7.187-2.865-8.686-6.633-1.277-3.213-.217-6.028.809-8.75.98-2.6,1.9-5.06.566-7.609-1.667-3.178-6.024-5.075-12.953-5.639a.622.622,0,1,1,.1-1.241c7.381.6,12.076,2.721,13.954,6.3,1.6,3.044.53,5.882-.5,8.627-.985,2.616-1.916,5.086-.815,7.852,1.3,3.269,4.549,4.564,7.989,5.936,3.832,1.526,7.794,3.106,9.452,7.532a13.236,13.236,0,0,1,.027,8.425A.625.625,0,0,1,4441.806,2904.144Z" transform="translate(-4411.628 -2859.021)" fill="#0dacfd"/>
          </g>
        </g>
      </g>
      <g id="Group_1629" data-name="Group 1629" transform="translate(28.895)">
        <g id="Group_1626" data-name="Group 1626">
          <g id="Group_1624" data-name="Group 1624" transform="translate(0.606 2.051)">
            <path id="Path_5032" data-name="Path 5032" d="M4532.857,2566.788c-14.446-18.3-15.278-29.178-12.647-35.917,3.224-8.257,11.372-9.594,12.466-18.032,1.35-10.4-10.347-13.685-10.24-24.71.114-11.768,13.507-14.718,16.25-28.049,1.419-6.9-.189-15.7-8.459-26.936,25.007,14.577,30.221,26.179,30.053,34.282-.172,8.344-6.009,11.063-5.788,21.816.269,13.072,9.055,16.85,9.795,28.717.244,3.907-3.487,10.92-10.24,24.933-4.4,9.128-8.369,16.157-5.366,21.087a8.35,8.35,0,0,0,3.367,3.009Z" transform="translate(-4519.037 -2433.144)" fill="#fff"/>
          </g>
          <g id="Group_1625" data-name="Group 1625">
            <path id="Path_5033" data-name="Path 5033" d="M4552.095,2558.955l-22.105-.231-.185-.233c-11.986-15.185-16.272-27.476-12.738-36.529,1.525-3.907,4.063-6.268,6.519-8.552,2.749-2.559,5.346-4.974,5.911-9.333.656-5.051-1.944-8.365-4.7-11.875s-5.6-7.145-5.549-12.761c.061-6.288,3.728-10.119,7.61-14.174,3.615-3.778,7.354-7.683,8.653-13.995,1.61-7.831-1.2-16.726-8.351-26.441l-1.783-2.422,2.6,1.514c20.378,11.877,30.594,23.6,30.363,34.833-.082,3.953-1.37,6.642-2.733,9.488-1.559,3.254-3.172,6.619-3.055,12.3.138,6.664,2.581,10.926,4.944,15.048,2.205,3.847,4.486,7.826,4.85,13.645.222,3.555-2.455,9.068-7.787,20.05q-1.176,2.423-2.514,5.192-.6,1.241-1.182,2.43c-3.78,7.75-6.768,13.871-4.214,18.064a7.691,7.691,0,0,0,3.121,2.779Zm-21.5-1.469,16.771.175a8.194,8.194,0,0,1-1.783-2.039c-2.907-4.776.211-11.167,4.158-19.259.386-.791.782-1.6,1.179-2.424q1.337-2.777,2.516-5.2c5.071-10.446,7.865-16.2,7.664-19.428-.345-5.529-2.454-9.208-4.688-13.1-2.44-4.258-4.965-8.659-5.107-15.64-.123-5.98,1.554-9.482,3.177-12.868,1.3-2.72,2.536-5.29,2.61-8.975.212-10.291-8.949-21.129-27.24-32.241,6.114,9.09,8.429,17.5,6.88,25.034-1.371,6.664-5.41,10.882-8.974,14.6-3.707,3.873-7.209,7.53-7.265,13.325-.051,5.18,2.661,8.637,5.283,11.98,2.789,3.557,5.674,7.235,4.953,12.8-.624,4.8-3.38,7.369-6.3,10.083-2.353,2.189-4.785,4.452-6.207,8.094C4514.883,2530.982,4519.044,2542.78,4530.6,2557.486Z" transform="translate(-4515.867 -2422.409)" fill="#0dacfd"/>
          </g>
        </g>
        <g id="Group_1628" data-name="Group 1628" transform="translate(14.915 36.325)">
          <g id="Group_1627" data-name="Group 1627">
            <path id="Path_5034" data-name="Path 5034" d="M4599.2,2701.964a.625.625,0,0,1-.51-.264,24.69,24.69,0,0,1-4.717-12.522c-.545-7.7,3.23-12.906,6.88-17.945,3.387-4.671,6.583-9.084,6.247-15.229-.286-5.2-2.991-8.481-5.605-11.652-2.756-3.342-5.605-6.8-5.451-12.35.186-6.626,4.531-13.142,12.918-19.368a.622.622,0,0,1,.742,1c-8.063,5.987-12.241,12.177-12.415,18.4-.142,5.086,2.437,8.213,5.167,11.524,2.743,3.326,5.58,6.765,5.888,12.377.362,6.586-3.117,11.386-6.481,16.028-3.52,4.859-7.16,9.881-6.647,17.126a23.46,23.46,0,0,0,4.494,11.892.622.622,0,0,1-.509.982Z" transform="translate(-4593.924 -2612.511)" fill="#0dacfd"/>
          </g>
        </g>
      </g>
    </g>
    <g id="Group_1752" data-name="Group 1752" transform="translate(2609.318 1139.511)">
      <g id="Group_1745" data-name="Group 1745" transform="translate(0)">
        <g id="Group_1633" data-name="Group 1633" transform="translate(0.651 44)">
          <g id="Group_1632" data-name="Group 1632">
            <g id="Group_1631" data-name="Group 1631">
              <path id="Path_5035" data-name="Path 5035" d="M3710.346,1631.625c1.913.482,3.717-6.405,1.647-7.055-.144-.045-8.356-9.081-8.108-6.5a16.017,16.017,0,0,0,1.078,4.466s-9.3-5.975-9-2.727S3694.933,1627.744,3710.346,1631.625Z" transform="translate(-3695.961 -1617.604)" fill="#0dacfd"/>
            </g>
          </g>
        </g>
        <g id="Group_1636" data-name="Group 1636" transform="translate(118.983 102.59)">
          <g id="Group_1635" data-name="Group 1635">
            <g id="Group_1634" data-name="Group 1634">
              <path id="Path_5036" data-name="Path 5036" d="M4351.963,1934.972a1.942,1.942,0,0,1-.141.251l-.01.02a6.88,6.88,0,0,1-.924,1.176l-.754.734-5.176,5.006-20.928,20.224-3.407,3.307-5.388-4.986,2.724-3.719,17.621-24.064.935-1.276,3.337-4.553a6.99,6.99,0,0,1,10.153-1.206l.382.312a7.7,7.7,0,0,1,.894.915A6.965,6.965,0,0,1,4351.963,1934.972Z" transform="translate(-4315.234 -1924.229)" fill="#fff"/>
            </g>
          </g>
        </g>
        <g id="Group_1639" data-name="Group 1639" transform="translate(106.651 138.943)">
          <g id="Group_1638" data-name="Group 1638">
            <g id="Group_1637" data-name="Group 1637">
              <path id="Path_5037" data-name="Path 5037" d="M4268.424,2119.5c1.315-1.471-3.947-6.266-5.484-4.734-.106.106-11.922,3.185-9.523,4.163a16.034,16.034,0,0,0,4.456,1.118s-9.608,5.461-6.591,6.7S4257.832,2131.354,4268.424,2119.5Z" transform="translate(-4250.696 -2114.473)" fill="#ffd9da"/>
            </g>
          </g>
        </g>
        <g id="Group_1642" data-name="Group 1642" transform="translate(118.985 135.347)">
          <g id="Group_1641" data-name="Group 1641">
            <g id="Group_1640" data-name="Group 1640">
              <path id="Path_5038" data-name="Path 5038" d="M4324.038,2101.057l-3.405,3.3-5.387-4.976,2.724-3.725C4319.286,2096.823,4321.9,2099.147,4324.038,2101.057Z" transform="translate(-4315.245 -2095.654)" fill="#0aa9fa"/>
            </g>
          </g>
        </g>
        <g id="Group_1645" data-name="Group 1645" transform="translate(57.7 154.807)">
          <g id="Group_1644" data-name="Group 1644">
            <g id="Group_1643" data-name="Group 1643">
              <path id="Path_5039" data-name="Path 5039" d="M4058.49,2229.894c-20.556-4.149-41.913-3.974-63.973,0v-32.4h63.973Z" transform="translate(-3994.517 -2197.497)" fill="#0dacfd"/>
            </g>
          </g>
        </g>
        <g id="Group_1648" data-name="Group 1648" transform="translate(50.917 151.284)">
          <g id="Group_1647" data-name="Group 1647">
            <g id="Group_1646" data-name="Group 1646">
              <path id="Path_5040" data-name="Path 5040" d="M3965.862,2179.059c-8.639,30.431-7.364,98.195-5.427,151.85h11.3c10.873-49.673,20.413-106.357,28.188-151.3Z" transform="translate(-3959.02 -2179.059)" fill="#0dacfd"/>
            </g>
          </g>
        </g>
        <g id="Group_1651" data-name="Group 1651" transform="translate(52.332 303.135)">
          <g id="Group_1650" data-name="Group 1650">
            <g id="Group_1649" data-name="Group 1649">
              <path id="Path_5041" data-name="Path 5041" d="M3966.426,2973.743h11.33l-3.53,17.611h-7.061Z" transform="translate(-3966.426 -2973.743)" fill="#0dacfd"/>
            </g>
          </g>
        </g>
        <g id="Group_1654" data-name="Group 1654" transform="translate(34.872 317.589)">
          <g id="Group_1653" data-name="Group 1653">
            <g id="Group_1652" data-name="Group 1652">
              <path id="Path_5042" data-name="Path 5042" d="M3900.994,3049.386v12.637a2.648,2.648,0,0,1-2.648,2.648h-21.562a1.729,1.729,0,0,1-.993-3.144l17.3-12.141A4.478,4.478,0,0,0,3900.994,3049.386Z" transform="translate(-3875.052 -3049.386)" fill="#0b090a"/>
            </g>
          </g>
        </g>
        <g id="Group_1657" data-name="Group 1657" transform="translate(87.135 151.284)">
          <g id="Group_1656" data-name="Group 1656">
            <g id="Group_1655" data-name="Group 1655">
              <path id="Path_5043" data-name="Path 5043" d="M4182.62,2179.059c8.639,30.431,7.364,98.195,5.427,151.85h-11.3c-10.873-49.673-20.413-106.357-28.187-151.3Z" transform="translate(-4148.562 -2179.059)" fill="#0dacfd"/>
            </g>
          </g>
        </g>
        <g id="Group_1660" data-name="Group 1660" transform="translate(104.096 60.56)">
          <g id="Group_1659" data-name="Group 1659">
            <g id="Group_1658" data-name="Group 1658">
              <path id="Path_5044" data-name="Path 5044" d="M4289.977,1756.067a3.542,3.542,0,0,1-.261.281,8.317,8.317,0,0,1-.774.694,9.1,9.1,0,0,1-2.663,1.5,9.6,9.6,0,0,1-1.4.382,9.335,9.335,0,0,1-5.679-.7,9.585,9.585,0,0,1-2.171-1.417l-3.538-3.086-31.975-27.954a12.261,12.261,0,1,1,17.239-17.369l28.114,31.663.906,1.015,2.291,2.593a9.092,9.092,0,0,1,2.211,4.624v.03A9.261,9.261,0,0,1,4289.977,1756.067Z" transform="translate(-4237.325 -1704.268)" fill="#fff"/>
            </g>
          </g>
        </g>
        <g id="Group_1663" data-name="Group 1663" transform="translate(17.781 58.957)">
          <g id="Group_1662" data-name="Group 1662">
            <g id="Group_1661" data-name="Group 1661">
              <path id="Path_5045" data-name="Path 5045" d="M3841.96,1719.449l-14.545,6.1-27.14,11.389-.512.211-1.3.543a9.322,9.322,0,0,1-9.338-1.276c-.01,0-.01,0-.01-.01a9.18,9.18,0,0,1-1.9-2.041,9.055,9.055,0,0,1-.644-1.106,10.182,10.182,0,0,1-.593-1.528c-.071-.241-.131-.492-.181-.734a7.519,7.519,0,0,1-.131-.824l-.01-.161-.05-.7v-.05a9.256,9.256,0,0,1,4.634-8.142l5.86-3.388,1.187-.683,32.135-18.565,1.659-.955a12.261,12.261,0,1,1,10.876,21.923Z" transform="translate(-3785.609 -1695.881)" fill="#fff"/>
            </g>
          </g>
        </g>
        <g id="Group_1666" data-name="Group 1666" transform="translate(57.7 55.857)">
          <g id="Group_1665" data-name="Group 1665">
            <g id="Group_1664" data-name="Group 1664">
              <path id="Path_5046" data-name="Path 5046" d="M4059.643,1778.019c-14.952,15.617-49.509,13.624-65.126-1.993l2.658-89.715c10.4-9.124,48.335-8.616,62.468,0Z" transform="translate(-3994.517 -1679.657)" fill="#fff"/>
            </g>
          </g>
        </g>
        <g id="Group_1669" data-name="Group 1669" transform="translate(10.846 51.958)">
          <g id="Group_1668" data-name="Group 1668">
            <g id="Group_1667" data-name="Group 1667">
              <path id="Path_5047" data-name="Path 5047" d="M3770.1,1704.122a6.887,6.887,0,0,1-4.141,3.317l-.482.151a6.957,6.957,0,0,1-5.709-.8c-.01,0-.01,0-.01-.01a6.72,6.72,0,0,1-1.116-.875,6.919,6.919,0,0,1-1.869-3.156c-.041-.121-.071-.241-.1-.362l-.051-.281-.03-.171-.171-.9-.121-.643-.121-.653-6.443-34.156-.422-1.357.1-.07,6.543-4.865.041-.03,1.82,4.885,8.694,23.33.232.633,3.8,10.193A6.965,6.965,0,0,1,3770.1,1704.122Z" transform="translate(-3749.316 -1659.251)" fill="#fff"/>
            </g>
          </g>
        </g>
        <g id="Group_1672" data-name="Group 1672" transform="translate(84.664 31.582)">
          <g id="Group_1671" data-name="Group 1671">
            <g id="Group_1670" data-name="Group 1670">
              <path id="Path_5048" data-name="Path 5048" d="M4151.823,1553.033v24.343c-6.187,11.962-15.657,11.091-16.195,0,.014-.611.04-1.236.086-1.874.059-.937.146-1.9.252-2.9.432-4.021,1.242-8.5,2.227-13.185q.059-.279.119-.558c.432-2.047.9-4.133,1.382-6.24Z" transform="translate(-4135.628 -1552.621)" fill="#0dacfd"/>
            </g>
          </g>
        </g>
        <g id="Group_1675" data-name="Group 1675" transform="translate(81.768 55.461)">
          <g id="Group_1674" data-name="Group 1674">
            <g id="Group_1673" data-name="Group 1673">
              <path id="Path_5049" data-name="Path 5049" d="M4129.519,1690.695a7.6,7.6,0,0,1-1.621-.174c-4.32-.941-7.094-5.521-7.421-12.252a.652.652,0,0,1,.618-.683.624.624,0,0,1,.682.619c.3,6.108,2.689,10.236,6.4,11.044,3.556.772,9-1.615,13.666-10.632a.651.651,0,0,1,1.158.6C4139.25,1686.463,4134.216,1690.695,4129.519,1690.695Z" transform="translate(-4120.475 -1677.585)" fill="#0b090a"/>
            </g>
          </g>
        </g>
        <g id="Group_1678" data-name="Group 1678" transform="translate(85.003 37.823)">
          <g id="Group_1677" data-name="Group 1677">
            <g id="Group_1676" data-name="Group 1676">
              <path id="Path_5050" data-name="Path 5050" d="M4149.3,1587.079s-2.831,9.1-11.9,11.942c.432-4.021,1.243-8.5,2.226-13.185.041-.186.08-.372.121-.558Z" transform="translate(-4137.402 -1585.278)" fill="#0b090a"/>
            </g>
          </g>
        </g>
        <g id="Group_1681" data-name="Group 1681" transform="translate(76.169 16.492)">
          <g id="Group_1680" data-name="Group 1680">
            <g id="Group_1679" data-name="Group 1679">
              <path id="Path_5051" data-name="Path 5051" d="M4097.015,1475.319c-5.987,8.622-8.68,19.23-1.661,24.671,10.674,5.067,19.273-4.527,26-14.454C4114.7,1474.937,4106.67,1471.122,4097.015,1475.319Z" transform="translate(-4091.174 -1473.647)" fill="#0dacfd"/>
            </g>
          </g>
        </g>
        <g id="Group_1684" data-name="Group 1684" transform="translate(76.46 0.652)">
          <g id="Group_1683" data-name="Group 1683">
            <g id="Group_1682" data-name="Group 1682">
              <path id="Path_5052" data-name="Path 5052" d="M4093.976,1416.946c-1.26-3.834-1.451-7.308.277-10.135-2.75-6.979-2.244-12.35,4.652-14.565,4.278,4.544,8.409,7.016,12.35,6.812-2.668-2.579-4.328-5.336-4.762-8.307a32.452,32.452,0,0,0,14.454,12.35c3.145-.219,4.427,1.2,3.323,4.707,2.592,1.151,2.651,3.694.554,7.421a43.1,43.1,0,0,1-10.079,9.692,55.68,55.68,0,0,0-.333-9.359c-1.462,1.782-2.8,3.1-3.766,3.046-1.371-.854.042-4.328,1.994-8.307-5.627,3.909-10.39,4.107-14.123-.11A14.2,14.2,0,0,0,4093.976,1416.946Z" transform="translate(-4092.696 -1390.751)" fill="#0b090a"/>
            </g>
          </g>
        </g>
        <g id="Group_1687" data-name="Group 1687" transform="translate(98.247 26.883)">
          <g id="Group_1686" data-name="Group 1686">
            <g id="Group_1685" data-name="Group 1685">
              <path id="Path_5053" data-name="Path 5053" d="M4206.715,1535.134c3.835-8.675,8.39-8.064,10.134-5.206,2.547,5.981-3.987,11.464-9.249,9.636Z" transform="translate(-4206.715 -1528.027)" fill="#0dacfd"/>
            </g>
          </g>
        </g>
        <g id="Group_1690" data-name="Group 1690" transform="translate(101.902 30.089)">
          <g id="Group_1689" data-name="Group 1689">
            <g id="Group_1688" data-name="Group 1688">
              <path id="Path_5054" data-name="Path 5054" d="M4225.843,1547.738s1.994-5.206,4.873-1.745A5.372,5.372,0,0,0,4225.843,1547.738Z" transform="translate(-4225.843 -1544.806)" fill="#0b090a"/>
            </g>
          </g>
        </g>
        <g id="Group_1693" data-name="Group 1693" transform="translate(115.29 303.135)">
          <g id="Group_1692" data-name="Group 1692">
            <g id="Group_1691" data-name="Group 1691">
              <path id="Path_5055" data-name="Path 5055" d="M4307.237,2973.743h-11.331l3.53,17.611h7.062Z" transform="translate(-4295.906 -2973.743)" fill="#0dacfd"/>
            </g>
          </g>
        </g>
        <g id="Group_1696" data-name="Group 1696" transform="translate(118.195 317.589)">
          <g id="Group_1695" data-name="Group 1695">
            <g id="Group_1694" data-name="Group 1694">
              <path id="Path_5056" data-name="Path 5056" d="M4311.106,3049.386v12.637a2.647,2.647,0,0,0,2.647,2.648h21.563a1.729,1.729,0,0,0,.993-3.144l-17.3-12.141A4.477,4.477,0,0,1,4311.106,3049.386Z" transform="translate(-4311.106 -3049.386)" fill="#0b090a"/>
            </g>
          </g>
        </g>
        <g id="Group_1699" data-name="Group 1699" transform="translate(10.847 51.957)">
          <g id="Group_1698" data-name="Group 1698">
            <g id="Group_1697" data-name="Group 1697">
              <path id="Path_5057" data-name="Path 5057" d="M3757.823,1664.135c-2.949.523-6.078,1.082-8.078,1.438l-.425-1.359,6.682-4.968Z" transform="translate(-3749.32 -1659.246)" fill="#0aa9fa"/>
            </g>
          </g>
        </g>
        <g id="Group_1702" data-name="Group 1702" transform="translate(86.782 164.332)">
          <g id="Group_1701" data-name="Group 1701">
            <g id="Group_1700" data-name="Group 1700">
              <path id="Path_5058" data-name="Path 5058" d="M4153.023,2258.038h-5.658a.651.651,0,0,1-.651-.651v-9.4a.651.651,0,0,1,1.3,0v8.744h5.007a.651.651,0,0,1,0,1.3Z" transform="translate(-4146.714 -2247.341)" fill="#0b090a"/>
            </g>
          </g>
        </g>
        <g id="Group_1705" data-name="Group 1705" transform="translate(79.542 183.243)">
          <g id="Group_1704" data-name="Group 1704">
            <g id="Group_1703" data-name="Group 1703">
              <path id="Path_5059" data-name="Path 5059" d="M4109.478,2348.655a.651.651,0,0,1-.168-1.28,48.552,48.552,0,0,1,20.456-.009.651.651,0,1,1-.259,1.276,48.078,48.078,0,0,0-19.86-.008A.673.673,0,0,1,4109.478,2348.655Z" transform="translate(-4108.826 -2346.31)" fill="#0b090a"/>
            </g>
          </g>
        </g>
        <g id="Group_1708" data-name="Group 1708" transform="translate(56.283 157.785)">
          <g id="Group_1707" data-name="Group 1707">
            <g id="Group_1706" data-name="Group 1706">
              <path id="Path_5060" data-name="Path 5060" d="M3994.508,2227.887h-6.756a.651.651,0,0,1,0-1.3h6.21l2.3-12.968a.657.657,0,0,1,.754-.527.649.649,0,0,1,.527.755l-2.395,13.505A.651.651,0,0,1,3994.508,2227.887Z" transform="translate(-3987.101 -2213.08)" fill="#0b090a"/>
            </g>
          </g>
        </g>
        <g id="Group_1711" data-name="Group 1711" transform="translate(115.607 158.673)">
          <g id="Group_1710" data-name="Group 1710">
            <g id="Group_1709" data-name="Group 1709">
              <path id="Path_5061" data-name="Path 5061" d="M4301.635,2234.082a.65.65,0,0,1-.634-.507l-3.421-15.054a.651.651,0,1,1,1.269-.288l3.292,14.482,5.01-.6a.651.651,0,0,1,.155,1.293l-5.592.675A.645.645,0,0,1,4301.635,2234.082Z" transform="translate(-4297.563 -2217.726)" fill="#0b090a"/>
            </g>
          </g>
        </g>
        <g id="Group_1714" data-name="Group 1714" transform="translate(56.882 151.341)">
          <g id="Group_1713" data-name="Group 1713">
            <g id="Group_1712" data-name="Group 1712">
              <path id="Path_5062" data-name="Path 5062" d="M4025.348,2193.3c-13.087,0-26.443-4.331-34.923-12.838a.651.651,0,0,1,.923-.919c15.742,15.795,48.75,16.811,64.215,1.983a.651.651,0,1,1,.9.94C4048.89,2189.731,4037.23,2193.3,4025.348,2193.3Z" transform="translate(-3990.235 -2179.356)" fill="#0d090a"/>
            </g>
          </g>
        </g>
        <g id="Group_1717" data-name="Group 1717" transform="translate(52.018 293.678)">
          <g id="Group_1716" data-name="Group 1716">
            <g id="Group_1715" data-name="Group 1715">
              <path id="Path_5063" data-name="Path 5063" d="M3978.443,2924.252c-.1,1.482-.2,2.976-.3,4.459-.361,1.656-.71,3.3-1.07,4.943a.892.892,0,0,1-.013.187l-2.839,14.21c0,.038.012.075.012.112v5.355h-9.116l-.05-4.135-.013-.784-.262-23.774-.012-.573Z" transform="translate(-3964.782 -2924.252)" fill="#0b090a"/>
            </g>
          </g>
        </g>
        <g id="Group_1720" data-name="Group 1720" transform="translate(113.315 293.678)">
          <g id="Group_1719" data-name="Group 1719">
            <g id="Group_1718" data-name="Group 1718">
              <path id="Path_5064" data-name="Path 5064" d="M4299.232,2924.252q-.131,11.357-.249,22.479l-.012.149v.921c-.012.262-.012.523-.012.785s-.013.523-.013.784c-.013,1.4-.037,2.765-.049,4.147H4289.8V2948.2l-2.9-14.359a.525.525,0,0,1,0-.2c-.336-1.557-.685-3.114-1.009-4.67a.047.047,0,0,1-.012-.038c-.1-1.495-.2-3-.3-4.508,0-.062-.013-.113-.013-.174Z" transform="translate(-4285.57 -2924.252)" fill="#0b090a"/>
            </g>
          </g>
        </g>
        <g id="Group_1723" data-name="Group 1723" transform="translate(54.397 173.727)">
          <g id="Group_1722" data-name="Group 1722">
            <g id="Group_1721" data-name="Group 1721">
              <path id="Path_5065" data-name="Path 5065" d="M3978.542,2417.107a.652.652,0,0,1-.651-.636c-2.489-106.061,2.844-119.078,3.073-119.581a.651.651,0,0,1,1.188.534c-.229.536-5.423,14-2.959,119.016a.652.652,0,0,1-.636.667Z" transform="translate(-3977.23 -2296.51)" fill="#194457"/>
            </g>
          </g>
        </g>
        <g id="Group_1726" data-name="Group 1726" transform="translate(120.132 178.009)">
          <g id="Group_1725" data-name="Group 1725">
            <g id="Group_1724" data-name="Group 1724">
              <path id="Path_5066" data-name="Path 5066" d="M4323.957,2435.235a.529.529,0,0,1-.059,0,.651.651,0,0,1-.592-.7c3.763-43-2-114.188-2.061-114.9a.65.65,0,1,1,1.3-.107c.06.715,5.833,72.012,2.062,115.122A.651.651,0,0,1,4323.957,2435.235Z" transform="translate(-4321.243 -2318.92)" fill="#194457"/>
            </g>
          </g>
        </g>
        <g id="Group_1729" data-name="Group 1729" transform="translate(122.175 86.915)">
          <g id="Group_1728" data-name="Group 1728">
            <g id="Group_1727" data-name="Group 1727">
              <path id="Path_5067" data-name="Path 5067" d="M4332.587,1850.688a.65.65,0,0,1-.65-.651v-7.192a.651.651,0,0,1,1.3,0v7.192A.651.651,0,0,1,4332.587,1850.688Z" transform="translate(-4331.937 -1842.194)" fill="#0b090a"/>
            </g>
          </g>
        </g>
        <g id="Group_1732" data-name="Group 1732" transform="translate(58.933 79.573)">
          <g id="Group_1731" data-name="Group 1731">
            <g id="Group_1730" data-name="Group 1730">
              <path id="Path_5068" data-name="Path 5068" d="M4001.621,1813.479a.651.651,0,0,1-.651-.651v-8.406a.651.651,0,1,1,1.3,0v8.406A.651.651,0,0,1,4001.621,1813.479Z" transform="translate(-4000.97 -1803.771)" fill="#0b090a"/>
            </g>
          </g>
        </g>
        <g id="Group_1735" data-name="Group 1735" transform="translate(149.621 97.361)">
          <g id="Group_1734" data-name="Group 1734">
            <g id="Group_1733" data-name="Group 1733">
              <path id="Path_5069" data-name="Path 5069" d="M4482.7,1911.861a3.565,3.565,0,0,1-.261.281,8.343,8.343,0,0,1-.774.694,2.037,2.037,0,0,1-.141.251l-.01.02a6.886,6.886,0,0,1-.925,1.176l-.754.734c-.292-.211-.562-.442-.834-.683a11.185,11.185,0,0,1-3.427-8.172,11.511,11.511,0,0,1,.7-3.98,10.3,10.3,0,0,1,4.222-5.317l2.292,2.594a9.088,9.088,0,0,1,2.211,4.624v.03A9.261,9.261,0,0,1,4482.7,1911.861Z" transform="translate(-4475.572 -1896.864)" fill="#0dacfd"/>
            </g>
          </g>
        </g>
        <g id="Group_1738" data-name="Group 1738" transform="translate(17.712 90.677)">
          <g id="Group_1737" data-name="Group 1737">
            <g id="Group_1736" data-name="Group 1736">
              <path id="Path_5070" data-name="Path 5070" d="M3799.981,1871.22l-.513.211-1.3.543a9.318,9.318,0,0,1-9.338-1.277c-.01,0-.01,0-.01-.01a6.694,6.694,0,0,1-1.116-.875,6.923,6.923,0,0,1-1.87-3.156c-.04-.121-.071-.241-.1-.362l-.05-.281c-.07-.241-.131-.493-.181-.734a7.329,7.329,0,0,1-.131-.825l-.01-.161-.121-.653a.188.188,0,0,1,.071-.05,8.743,8.743,0,0,1,5.187-1.709,9.548,9.548,0,0,1,8.665,6.152A11.429,11.429,0,0,1,3799.981,1871.22Z" transform="translate(-3785.245 -1861.882)" fill="#0dacfd"/>
            </g>
          </g>
        </g>
        <g id="Group_1741" data-name="Group 1741">
          <g id="Group_1740" data-name="Group 1740">
            <g id="Group_1739" data-name="Group 1739">
              <path id="Path_5071" data-name="Path 5071" d="M3833.256,1496.851l-.038-.038-17.186-15.007-.224-.2a.582.582,0,0,0-.424-.162.727.727,0,0,0-.274.062.575.575,0,0,0-.224.162.639.639,0,0,0-.162.423v39.068a.616.616,0,0,0,.274.523.484.484,0,0,0,.174.1,1.215,1.215,0,0,0,.212.025.637.637,0,0,0,.523-.262l.125-.174,17.274-23.6.037-.05a.622.622,0,0,0,.125-.386A.65.65,0,0,0,3833.256,1496.851Zm-1.308.585-15.916,21.732v-35.643Zm1.308-.585-.038-.038-17.186-15.007-.224-.2a.582.582,0,0,0-.424-.162.727.727,0,0,0-.274.062.575.575,0,0,0-.224.162.639.639,0,0,0-.162.423v39.068a.616.616,0,0,0,.274.523.484.484,0,0,0,.174.1,1.215,1.215,0,0,0,.212.025.637.637,0,0,0,.523-.262l.125-.174,17.274-23.6.037-.05a.622.622,0,0,0,.125-.386A.65.65,0,0,0,3833.256,1496.851Zm-1.308.585-15.916,21.732v-35.643Zm20.3-5.592-.648.1.648-.125a9.8,9.8,0,0,0-2.367-4.957l-31.309-35.281a12.567,12.567,0,0,0-5.131-3.5,44,44,0,0,0-7.572-2.715,78.068,78.068,0,0,0-9.4-1.868h-.013c-.037,0-.062-.012-.1-.012h-.05c-.024,0-.037,0-.05-.012h-.012c-.709-.087-1.445-.187-2.179-.262v-16.464a8.7,8.7,0,0,0,6.7-3.649,7.348,7.348,0,0,0,.722-7.31,4.514,4.514,0,0,0-1.158-1.307c.448-.523.9-1.084,1.382-1.694,1.433-2.541,1.881-4.521,1.37-6.04a3.554,3.554,0,0,0-1.719-2.03c.448-1.719.336-2.976-.361-3.861s-1.905-1.258-3.611-1.171a31.533,31.533,0,0,1-14.023-12.043.647.647,0,0,0-.784-.261.631.631,0,0,0-.411.7,14.482,14.482,0,0,0,3.8,7.5c-3.138-.436-6.588-2.628-10.274-6.538a.642.642,0,0,0-.673-.174c-2.9.934-4.882,2.478-5.878,4.583-1.233,2.615-1.009,6.065.709,10.548-1.445,2.565-1.569,5.778-.361,9.776-2.64,7.36-1.569,13.363,3.014,16.912a.259.259,0,0,0,.125.075,14.433,14.433,0,0,0,5.243,1.432c-.436,2.528-.76,4.708-.959,6.65q-.168,1.495-.261,2.914c-.025.324-.038.635-.05.947-.535.025-1.084.062-1.606.1a.705.705,0,0,0-.162.013h-.013c-9.278.685-16.7,2.628-20.909,5.467l-32.741,18.917-10.474-28.133a.511.511,0,0,0-.112-.174,1.9,1.9,0,0,0-1-1.158c-.112-.1-.324-.324-.61-.623-5.642-5.866-7.111-6.738-7.983-6.339a1,1,0,0,0-.511,1.1,15.715,15.715,0,0,0,.536,2.9c-2.578-1.532-6.389-3.487-7.821-2.615a1.4,1.4,0,0,0-.635,1.445c.025.286.037.585.05.9.137,2.877.312,6.8,10.225,10.162l.349,1.083,6.551,34.771c0,.012.012.137.012.149a6.881,6.881,0,0,0,.137.884c.025.125.063.249.1.386l.137.648c.037.137.075.274.1.386a7.6,7.6,0,0,0,2.055,3.45,7.145,7.145,0,0,0,1.108.872,10.129,10.129,0,0,0,2.578,1.507,9.919,9.919,0,0,0,7.485-.087l28.008-11.744-1.831,61.7-.074.3a.012.012,0,0,0-.013.013c-.037.137-.074.261-.112.411v.012c-8.319,30.723-7.161,96.8-5.193,151.114l.586,14.073-17.024,11.955a2.381,2.381,0,0,0,1.357,4.334h21.57a3.306,3.306,0,0,0,3.3-3.3v-12.641c0-.037-.012-.075-.012-.112l2.839-14.21a.963.963,0,0,0,.012-.187c.361-1.644.71-3.288,1.072-4.944,7.8-36.253,14.819-75.432,21.271-112.545h5.654c6.464,37.175,13.488,76.416,21.321,112.769a.045.045,0,0,0,.012.037c.323,1.557.672,3.114,1.008,4.67a.558.558,0,0,0,0,.2l2.9,14.359v12.6a3.3,3.3,0,0,0,3.288,3.3h21.57a2.386,2.386,0,0,0,1.37-4.334l-17.061-11.968-.037-.025.037-.9.012-.15.548-13c1.507-41.82,2.715-94.324-1.358-129.457v-.025c0-.037-.012-.062-.012-.1a166.479,166.479,0,0,0-3.064-18.457c.15-.149.312-.3.448-.448a.632.632,0,0,0,.187-.448v-8.307c.386-.411.785-.834,1.2-1.283l.15-.112,30.275-29.279a8.511,8.511,0,0,0,1.034-1.308,1.386,1.386,0,0,1,.1-.2,7.377,7.377,0,0,0,.747-.672,2.418,2.418,0,0,0,.249-.262A9.832,9.832,0,0,0,3852.248,1491.845Zm-3.437,7.435c-.062.075-.137.137-.237.249-.2.2-.424.374-.71.61a.569.569,0,0,0-.162.187l-.15.274a5.952,5.952,0,0,1-.809,1.059l-.012.012-.81.785-26.065,25.206-2.777,2.678-.436.423a.906.906,0,0,0-.224.15l-.012.013-.374.411c-.211.249-.436.473-.648.7-.162.174-.312.349-.473.51a.689.689,0,0,0-.187.448v8.294c-.062.075-.137.137-.212.212l-.037.037-.249.236a.668.668,0,0,0-.187.374.554.554,0,0,0,0,.249c.025.124.062.261.087.386s.05.212.075.324a.3.3,0,0,1,.025.1,160.5,160.5,0,0,1,2.865,17.261q.037.318.074.635v.013c.025.212.05.424.074.648,3.687,32.429,2.927,79.492,1.606,119.257q-.149,4.8-.323,9.427v.025l-.61,14.571a.579.579,0,0,0,.311.536c.05.025.1.05.162.075a.214.214,0,0,0,.149.025h.05l.66.461,16.34,11.47a1.05,1.05,0,0,1,.4,1.208,1.035,1.035,0,0,1-1.021.747h-21.57a2,2,0,0,1-1.993-1.993l-.012-7.285v-5.455l-2.865-14.272c0-.025.012-.062.012-.087a.539.539,0,0,0-.025-.137q-1.009-4.633-2.005-9.315c-7.485-35.244-14.234-73.029-20.449-108.858a.392.392,0,0,0-.062-.149.626.626,0,0,0-.585-.386h-6.75a.655.655,0,0,0-.635.486c0,.012-.012.037-.012.05-6.227,35.854-12.977,73.626-20.461,108.858q-.99,4.688-2.005,9.315a.58.58,0,0,0-.012.137.116.116,0,0,1,.012.062l-2.889,14.384a.609.609,0,0,0,.062.4v12.254a2,2,0,0,1-1.992,1.993h-21.57a1.073,1.073,0,0,1-.61-1.955l16.315-11.457.672-.473.112-.075h.025a.769.769,0,0,0,.175-.087.653.653,0,0,0,.3-.573l-.61-14.471v-.012q-.168-4.67-.324-9.44c-1.719-51.721-2.3-111.312,5.243-140.428.063-.224.112-.436.175-.648v-.012c.062-.261.137-.51.212-.772v-.012c.025-.075.037-.137.062-.212a.316.316,0,0,0,.025-.149v-.149l1.868-62.642v-.025a.812.812,0,0,0-.05-.249.653.653,0,0,0-.237-.286.609.609,0,0,0-.348-.112.673.673,0,0,0-.274.05l-.4.162-26.576,11.159-1.968.822a8.577,8.577,0,0,1-5.405.411,7.292,7.292,0,0,1-1.083-.349,8.564,8.564,0,0,1-2.3-1.345,7.379,7.379,0,0,1-.971-.747,6.3,6.3,0,0,1-1.693-2.889,1.389,1.389,0,0,1-.075-.286l-.162-.747a1.634,1.634,0,0,1-.075-.286,5.5,5.5,0,0,1-.124-.723c0-.025-.013-.174-.013-.2l-.187-.971-.311-1.694v-.012l-6.078-32.156-.012-.087-.324-1.046a.792.792,0,0,0,.025-.3.554.554,0,0,0-.125-.274v-.013a.73.73,0,0,0-.324-.224c-9.515-3.113-9.664-6.451-9.776-9.129-.025-.336-.037-.66-.062-.959a.475.475,0,0,1,.012-.212c.585-.461,4.384,1.233,7.983,3.537a.636.636,0,0,0,.772-.05.653.653,0,0,0,.175-.76,15.737,15.737,0,0,1-.972-3.811c.8.5,2.528,1.993,6.214,5.828.81.847.81.847,1,.909s.311.336.361.573a.456.456,0,0,0,.125.212c0,.013.012.025.025.037l.548,1.482v.012l1.146,3.051,8.979,24.073a.387.387,0,0,0,.05.1.63.63,0,0,0,.336.286.7.7,0,0,0,.224.037.486.486,0,0,0,.224-.05.14.14,0,0,0,.1-.037l31.745-18.332,1.706-.984a25.791,25.791,0,0,1,7.049-3.076h.025a64.419,64.419,0,0,1,12.69-2.154c.212-.013.424-.038.648-.05a.111.111,0,0,0,.062-.012v.012c.187-.012.386-.037.573-.037.523-.05,1.046-.075,1.582-.1h.025a.653.653,0,0,0,.623-.635v-.05c.013-.473.025-.946.062-1.445.062-.922.149-1.88.261-2.864.013-.1.025-.2.038-.311.224-2.018.561-4.3,1.034-6.987a.422.422,0,0,0,.012-.124.61.61,0,0,0-.149-.4.619.619,0,0,0-.386-.224h-.012a.213.213,0,0,0-.087-.012,13.04,13.04,0,0,1-5.4-1.308c-5.53-4.334-3.923-11.632-2.466-15.6a.664.664,0,0,0,.012-.411c-.05-.149-.087-.274-.137-.423v-.012a3.294,3.294,0,0,0-.1-.386c-.947-3.474-.759-6.214.561-8.381a.645.645,0,0,0,.049-.585c-1.681-4.259-1.955-7.473-.846-9.8a7.6,7.6,0,0,1,4.707-3.773c4.533,4.72,8.68,6.924,12.566,6.713a.648.648,0,0,0,.586-.423.667.667,0,0,0-.162-.7,18.35,18.35,0,0,1-3.051-3.773,33.8,33.8,0,0,0,12.018,8.88.716.716,0,0,0,.324.062c1.333-.1,2.242.125,2.665.673.461.585.461,1.681-.013,3.188a.636.636,0,0,0,.361.785,2.6,2.6,0,0,1,1.52,1.519c.373,1.133-.05,2.815-1.208,4.907-.6.735-1.184,1.444-1.781,2.129a.694.694,0,0,0-.1.162.665.665,0,0,0-.05.386.568.568,0,0,0,.212.361.523.523,0,0,0,.137.088,3.671,3.671,0,0,1,1.283,1.183,5.973,5.973,0,0,1-.648,5.965,7.279,7.279,0,0,1-6.239,3.1h-.038a.677.677,0,0,0-.449.174.617.617,0,0,0-.2.411v17.485a.527.527,0,0,0-.05.2.61.61,0,0,0,.063.386.489.489,0,0,0,.274.249c.012.025.025.025.037.025a.533.533,0,0,0,.2.062c.647.075,1.3.137,1.968.224.274.025.548.062.834.1a.18.18,0,0,0,.087.025c.149.025.286.037.436.062a64.849,64.849,0,0,1,13.039,3.076h.012c1.171.423,2.254.884,3.262,1.358a11.656,11.656,0,0,1,2.454,1.245,11.192,11.192,0,0,1,2.217,1.93l28.955,32.616,2.354,2.653a8.527,8.527,0,0,1,2.055,4.321v.012a8.587,8.587,0,0,1-2.067,7.124C3848.873,1499.217,3848.835,1499.242,3848.811,1499.28Zm-15.593-2.466-17.186-15.007-.224-.2a.582.582,0,0,0-.424-.162.727.727,0,0,0-.274.062.575.575,0,0,0-.224.162.639.639,0,0,0-.162.423v39.068a.616.616,0,0,0,.274.523.484.484,0,0,0,.174.1,1.215,1.215,0,0,0,.212.025.637.637,0,0,0,.523-.262l.125-.174,17.274-23.6.037-.05a.622.622,0,0,0,.125-.386.65.65,0,0,0-.212-.486Zm-1.27.623-15.916,21.732v-35.643Zm1.308-.585-.038-.038-17.186-15.007-.224-.2a.582.582,0,0,0-.424-.162.727.727,0,0,0-.274.062.575.575,0,0,0-.224.162.639.639,0,0,0-.162.423v39.068a.616.616,0,0,0,.274.523.484.484,0,0,0,.174.1,1.215,1.215,0,0,0,.212.025.637.637,0,0,0,.523-.262l.125-.174,17.274-23.6.037-.05a.622.622,0,0,0,.125-.386A.65.65,0,0,0,3833.256,1496.851Zm-1.308.585-15.916,21.732v-35.643Zm1.308-.585-.038-.038-17.186-15.007-.224-.2a.582.582,0,0,0-.424-.162.727.727,0,0,0-.274.062.575.575,0,0,0-.224.162.639.639,0,0,0-.162.423v39.068a.616.616,0,0,0,.274.523.484.484,0,0,0,.174.1,1.215,1.215,0,0,0,.212.025.637.637,0,0,0,.523-.262l.125-.174,17.274-23.6.037-.05a.622.622,0,0,0,.125-.386A.65.65,0,0,0,3833.256,1496.851Zm-1.308.585-15.916,21.732v-35.643Z" transform="translate(-3692.555 -1387.339)" fill="#0b090a"/>
            </g>
          </g>
        </g>
        <g id="Group_1744" data-name="Group 1744" transform="translate(122.175 133.17)">
          <g id="Group_1743" data-name="Group 1743">
            <g id="Group_1742" data-name="Group 1742">
              <path id="Path_5072" data-name="Path 5072" d="M4332.587,2097.4a.65.65,0,0,1-.65-.651v-11.832a.651.651,0,1,1,1.3,0v11.832A.651.651,0,0,1,4332.587,2097.4Z" transform="translate(-4331.937 -2084.263)" fill="#0b090a"/>
            </g>
          </g>
        </g>
      </g>
      <g id="Group_1747" data-name="Group 1747" transform="translate(84.041 55.714)">
        <g id="Group_1746" data-name="Group 1746">
          <path id="Path_5073" data-name="Path 5073" d="M4139.7,1688.809c-.154,0-.309,0-.467-.016-5.286-.369-6.8-6.21-6.865-9.247a.622.622,0,0,1,.61-.635.6.6,0,0,1,.636.609c.006.312.233,7.65,5.707,8.031,5.625.41,9.254-8.172,9.291-8.258a.623.623,0,0,1,1.148.481C4149.6,1680.151,4145.908,1688.809,4139.7,1688.809Z" transform="translate(-4132.369 -1678.91)" fill="#0b090a"/>
        </g>
      </g>
      <g id="Group_1749" data-name="Group 1749" transform="translate(27.655 80.184)">
        <g id="Group_1748" data-name="Group 1748">
          <path id="Path_5074" data-name="Path 5074" d="M3837.905,1812.46a.622.622,0,0,1-.623-.623v-4.246a.623.623,0,1,1,1.245,0v4.246A.623.623,0,0,1,3837.905,1812.46Z" transform="translate(-3837.283 -1806.968)" fill="#0d090a"/>
        </g>
      </g>
      <g id="Group_1751" data-name="Group 1751" transform="translate(139.644 109.375)">
        <g id="Group_1750" data-name="Group 1750">
          <path id="Path_5075" data-name="Path 5075" d="M4429.482,1960.982h-5.5a.623.623,0,0,1,0-1.245h5.5a.623.623,0,1,1,0,1.245Z" transform="translate(-4423.357 -1959.737)" fill="#0d090a"/>
        </g>
      </g>
    </g>
    <g id="Group_1755" data-name="Group 1755" transform="translate(2353.435 1472.413)">
      <g id="Group_1754" data-name="Group 1754">
        <g id="Group_1753" data-name="Group 1753">
          <path id="Path_5076" data-name="Path 5076" d="M2868.98,3130.146a.6.6,0,0,1-.576.623H2354.01a.61.61,0,0,1-.575-.623.6.6,0,0,1,.575-.622H2868.4A.6.6,0,0,1,2868.98,3130.146Z" transform="translate(-2353.435 -3129.524)" fill="#0dacfd"/>
        </g>
      </g>
    </g>
    <g id="Group_1766" data-name="Group 1766" transform="translate(2546.511 1427.69)" opacity="0.17">
      <g id="Group_1760" data-name="Group 1760" transform="translate(0 0)">
        <g id="Group_1757" data-name="Group 1757" transform="translate(0.839 0.838)">
          <g id="Group_1756" data-name="Group 1756">
            <circle id="Ellipse_88" data-name="Ellipse 88" cx="12.954" cy="12.954" r="12.954" fill="#fff"/>
          </g>
        </g>
        <g id="Group_1759" data-name="Group 1759">
          <g id="Group_1758" data-name="Group 1758">
            <path id="Path_5077" data-name="Path 5077" d="M3377.659,2923.06a13.793,13.793,0,1,1,13.793-13.793A13.809,13.809,0,0,1,3377.659,2923.06Zm0-25.908a12.116,12.116,0,1,0,12.116,12.116A12.13,12.13,0,0,0,3377.659,2897.152Z" transform="translate(-3363.865 -2895.475)" fill="#4084f3"/>
          </g>
        </g>
      </g>
      <g id="Group_1765" data-name="Group 1765" transform="translate(8.342 9.349)">
        <g id="Group_1762" data-name="Group 1762" transform="translate(0.838 0.838)">
          <g id="Group_1761" data-name="Group 1761">
            <path id="Path_5078" data-name="Path 5078" d="M3411.906,2953.5l1.74,1.438,9.422-6.153" transform="translate(-3411.906 -2948.789)" fill="#fff"/>
          </g>
        </g>
        <g id="Group_1764" data-name="Group 1764">
          <g id="Group_1763" data-name="Group 1763">
            <path id="Path_5079" data-name="Path 5079" d="M3410.1,2952.231a.838.838,0,0,1-.534-.192l-1.74-1.438a.838.838,0,0,1,1.068-1.293l1.264,1.045,8.9-5.815a.838.838,0,0,1,.917,1.4l-9.421,6.153A.84.84,0,0,1,3410.1,2952.231Z" transform="translate(-3407.521 -2944.402)" fill="#4084f3"/>
          </g>
        </g>
      </g>
    </g>
    <g id="Group_1777" data-name="Group 1777" transform="translate(2563.742 1080.969)" opacity="0.17">
      <g id="Group_1771" data-name="Group 1771" transform="translate(0 0)">
        <g id="Group_1768" data-name="Group 1768" transform="translate(0)">
          <g id="Group_1767" data-name="Group 1767">
            <circle id="Ellipse_89" data-name="Ellipse 89" cx="7.925" cy="7.925" r="7.925" transform="translate(0 6.066) rotate(-22.5)" fill="#fff"/>
          </g>
        </g>
        <g id="Group_1770" data-name="Group 1770" transform="translate(1.916 1.917)">
          <g id="Group_1769" data-name="Group 1769">
            <path id="Path_5080" data-name="Path 5080" d="M3472.511,1107.876a8.438,8.438,0,1,1,8.438-8.438A8.448,8.448,0,0,1,3472.511,1107.876Zm0-15.85a7.412,7.412,0,1,0,7.413,7.412A7.421,7.421,0,0,0,3472.511,1092.026Z" transform="translate(-3464.072 -1091)" fill="#4084f3"/>
          </g>
        </g>
      </g>
      <g id="Group_1776" data-name="Group 1776" transform="translate(7.02 7.636)">
        <g id="Group_1773" data-name="Group 1773" transform="translate(0.513 0.513)">
          <g id="Group_1772" data-name="Group 1772">
            <path id="Path_5081" data-name="Path 5081" d="M3493.463,1126.5l1.065.88,5.764-3.764" transform="translate(-3493.463 -1123.616)" fill="#fff"/>
          </g>
        </g>
        <g id="Group_1775" data-name="Group 1775">
          <g id="Group_1774" data-name="Group 1774">
            <path id="Path_5082" data-name="Path 5082" d="M3492.357,1125.722a.512.512,0,0,1-.327-.117l-1.064-.88a.513.513,0,0,1,.653-.791l.773.639,5.448-3.558a.513.513,0,0,1,.562.859l-5.764,3.764A.514.514,0,0,1,3492.357,1125.722Z" transform="translate(-3490.78 -1120.933)" fill="#4084f3"/>
          </g>
        </g>
      </g>
    </g>
    <g id="Group_1788" data-name="Group 1788" transform="translate(2832.461 1352.928)" opacity="0.17">
      <g id="Group_1782" data-name="Group 1782" transform="translate(0 0)">
        <g id="Group_1779" data-name="Group 1779" transform="translate(0.839 0.838)">
          <g id="Group_1778" data-name="Group 1778">
            <circle id="Ellipse_90" data-name="Ellipse 90" cx="12.954" cy="12.954" r="12.954" fill="#fff"/>
          </g>
        </g>
        <g id="Group_1781" data-name="Group 1781">
          <g id="Group_1780" data-name="Group 1780">
            <path id="Path_5083" data-name="Path 5083" d="M4874.131,2531.8a13.793,13.793,0,1,1,13.792-13.792A13.809,13.809,0,0,1,4874.131,2531.8Zm0-25.909a12.116,12.116,0,1,0,12.116,12.116A12.129,12.129,0,0,0,4874.131,2505.9Z" transform="translate(-4860.337 -2504.219)" fill="#4084f3"/>
          </g>
        </g>
      </g>
      <g id="Group_1787" data-name="Group 1787" transform="translate(8.342 9.349)">
        <g id="Group_1784" data-name="Group 1784" transform="translate(0.838 0.838)">
          <g id="Group_1783" data-name="Group 1783">
            <path id="Path_5084" data-name="Path 5084" d="M4908.379,2562.247l1.74,1.438,9.422-6.153" transform="translate(-4908.379 -2557.532)" fill="#fff"/>
          </g>
        </g>
        <g id="Group_1786" data-name="Group 1786">
          <g id="Group_1785" data-name="Group 1785">
            <path id="Path_5085" data-name="Path 5085" d="M4906.571,2560.976a.835.835,0,0,1-.534-.192l-1.74-1.438a.838.838,0,1,1,1.067-1.292l1.265,1.045,8.9-5.815a.838.838,0,0,1,.917,1.4l-9.421,6.153A.839.839,0,0,1,4906.571,2560.976Z" transform="translate(-4903.994 -2553.147)" fill="#4084f3"/>
          </g>
        </g>
      </g>
    </g>
    <g id="Group_1799" data-name="Group 1799" transform="translate(2391.035 1248.152)" opacity="0.17">
      <g id="Group_1793" data-name="Group 1793" transform="translate(0 0)">
        <g id="Group_1790" data-name="Group 1790" transform="translate(0)">
          <g id="Group_1789" data-name="Group 1789">
            <circle id="Ellipse_91" data-name="Ellipse 91" cx="12.167" cy="12.167" r="12.167" transform="translate(0 24.216) rotate(-84.345)" fill="#fff"/>
          </g>
        </g>
        <g id="Group_1792" data-name="Group 1792" transform="translate(0.352 0.352)">
          <g id="Group_1791" data-name="Group 1791">
            <path id="Path_5086" data-name="Path 5086" d="M2565.005,1983.644a12.954,12.954,0,1,1,12.954-12.954A12.969,12.969,0,0,1,2565.005,1983.644Zm0-24.334a11.38,11.38,0,1,0,11.379,11.38A11.393,11.393,0,0,0,2565.005,1959.31Z" transform="translate(-2552.05 -1957.735)" fill="#4084f3"/>
          </g>
        </g>
      </g>
      <g id="Group_1798" data-name="Group 1798" transform="translate(8.187 9.133)">
        <g id="Group_1795" data-name="Group 1795" transform="translate(0.787 0.787)">
          <g id="Group_1794" data-name="Group 1794">
            <path id="Path_5087" data-name="Path 5087" d="M2597.171,2012.236l1.635,1.35,8.849-5.778" transform="translate(-2597.171 -2007.808)" fill="#fff"/>
          </g>
        </g>
        <g id="Group_1797" data-name="Group 1797">
          <g id="Group_1796" data-name="Group 1796">
            <path id="Path_5088" data-name="Path 5088" d="M2595.473,2011.042a.787.787,0,0,1-.5-.18l-1.634-1.351a.787.787,0,1,1,1-1.214l1.187.982,8.364-5.462a.787.787,0,0,1,.861,1.319l-8.848,5.778A.79.79,0,0,1,2595.473,2011.042Z" transform="translate(-2593.052 -2003.688)" fill="#4084f3"/>
          </g>
        </g>
      </g>
    </g>
    <g id="Group_1810" data-name="Group 1810" transform="translate(2727.529 1099.413)" opacity="0.17">
      <g id="Group_1804" data-name="Group 1804" transform="translate(0 0)">
        <g id="Group_1801" data-name="Group 1801" transform="translate(0.581 0.581)">
          <g id="Group_1800" data-name="Group 1800">
            <circle id="Ellipse_92" data-name="Ellipse 92" cx="8.972" cy="8.972" r="8.972" fill="#fff"/>
          </g>
        </g>
        <g id="Group_1803" data-name="Group 1803">
          <g id="Group_1802" data-name="Group 1802">
            <path id="Path_5089" data-name="Path 5089" d="M4320.744,1196.6a9.552,9.552,0,1,1,9.552-9.552A9.564,9.564,0,0,1,4320.744,1196.6Zm0-17.943a8.391,8.391,0,1,0,8.391,8.391A8.4,8.4,0,0,0,4320.744,1178.656Z" transform="translate(-4311.191 -1177.495)" fill="#4084f3"/>
          </g>
        </g>
      </g>
      <g id="Group_1809" data-name="Group 1809" transform="translate(5.777 6.475)">
        <g id="Group_1806" data-name="Group 1806" transform="translate(0.58 0.58)">
          <g id="Group_1805" data-name="Group 1805">
            <path id="Path_5090" data-name="Path 5090" d="M4344.462,1217.684l1.205,1,6.525-4.261" transform="translate(-4344.462 -1214.419)" fill="#fff"/>
          </g>
        </g>
        <g id="Group_1808" data-name="Group 1808">
          <g id="Group_1807" data-name="Group 1807">
            <path id="Path_5091" data-name="Path 5091" d="M4343.21,1216.8a.584.584,0,0,1-.37-.133l-1.2-1a.58.58,0,0,1,.739-.9l.876.724,6.167-4.027a.581.581,0,0,1,.636.972l-6.526,4.261A.579.579,0,0,1,4343.21,1216.8Z" transform="translate(-4341.424 -1211.381)" fill="#4084f3"/>
          </g>
        </g>
      </g>
    </g>
    <g id="Group_1829" data-name="Group 1829" transform="translate(2778.978 1254.001)" opacity="0.07">
      <g id="Group_1828" data-name="Group 1828" transform="translate(0 0)">
        <path id="Path_5098" data-name="Path 5098" d="M4654.027,2030.325v-14.056a1.62,1.62,0,0,0-1.619-1.62h-4.045a1.63,1.63,0,0,1-1.537-1.123,30.249,30.249,0,0,0-1.781-4.168,1.63,1.63,0,0,1,.277-1.914l2.9-2.9a1.618,1.618,0,0,0,0-2.29l-9.946-9.946a1.62,1.62,0,0,0-2.291,0l-3.043,3.043a1.621,1.621,0,0,1-1.875.29,29.915,29.915,0,0,0-4.046-1.644,1.622,1.622,0,0,1-1.142-1.537v-4.338a1.619,1.619,0,0,0-1.619-1.62h-14.056a1.62,1.62,0,0,0-1.621,1.62v4.338a1.622,1.622,0,0,1-1.142,1.537,29.915,29.915,0,0,0-4.046,1.644,1.621,1.621,0,0,1-1.875-.29l-3.043-3.043a1.619,1.619,0,0,0-2.29,0l-9.947,9.946a1.621,1.621,0,0,0,0,2.29l2.9,2.9a1.63,1.63,0,0,1,.276,1.914,30.306,30.306,0,0,0-1.78,4.168,1.63,1.63,0,0,1-1.537,1.123h-4.045a1.619,1.619,0,0,0-1.619,1.62v14.056a1.619,1.619,0,0,0,1.619,1.619h3.771a1.63,1.63,0,0,1,1.549,1.167,30.5,30.5,0,0,0,1.771,4.444,1.627,1.627,0,0,1-.292,1.881l-2.615,2.615a1.621,1.621,0,0,0,0,2.29l9.947,9.945a1.618,1.618,0,0,0,2.29,0l2.475-2.475a1.628,1.628,0,0,1,1.913-.275,29.486,29.486,0,0,0,4.569,1.913,1.629,1.629,0,0,1,1.148,1.543v3.48a1.62,1.62,0,0,0,1.621,1.619h14.056a1.619,1.619,0,0,0,1.619-1.619v-3.481a1.629,1.629,0,0,1,1.147-1.543,29.735,29.735,0,0,0,4.572-1.913,1.629,1.629,0,0,1,1.912.275l2.475,2.475a1.62,1.62,0,0,0,2.291,0l9.946-9.945a1.618,1.618,0,0,0,0-2.29l-2.615-2.615a1.63,1.63,0,0,1-.292-1.881,30.388,30.388,0,0,0,1.771-4.444,1.63,1.63,0,0,1,1.55-1.167h3.771A1.619,1.619,0,0,0,4654.027,2030.325Zm-20.5-2.974a16.485,16.485,0,0,1-1.757,4.593,16.768,16.768,0,0,1-5.885,6.058,17.4,17.4,0,0,1-4.327,1.851,16.967,16.967,0,0,1-8.641,0,16.6,16.6,0,0,1-10.212-7.909,16.8,16.8,0,0,1-2.158-8.228,16.612,16.612,0,0,1,13.062-16.284,16.163,16.163,0,0,1,3.622-.4,16.352,16.352,0,0,1,3.634.4,16.637,16.637,0,0,1,13.063,16.284A16.306,16.306,0,0,1,4633.523,2027.351Z" transform="translate(-4580.439 -1986.502)" fill="#4084f3"/>
      </g>
    </g>
    <g id="Group_1831" data-name="Group 1831" transform="translate(2478.885 1429.188)" opacity="0.07">
      <g id="Group_1830" data-name="Group 1830" transform="translate(0 0)">
        <path id="Path_5099" data-name="Path 5099" d="M3041.687,2922.207v-6.061a.7.7,0,0,0-.7-.7h-1.744a.7.7,0,0,1-.663-.484,13.086,13.086,0,0,0-.768-1.8.7.7,0,0,1,.119-.825l1.251-1.25a.7.7,0,0,0,0-.988l-4.288-4.289a.7.7,0,0,0-.987,0l-1.312,1.313a.7.7,0,0,1-.808.125,12.979,12.979,0,0,0-1.744-.708.7.7,0,0,1-.493-.663v-1.87a.7.7,0,0,0-.7-.7h-6.061a.7.7,0,0,0-.7.7v1.87a.7.7,0,0,1-.493.663,12.96,12.96,0,0,0-1.744.708.7.7,0,0,1-.808-.125l-1.312-1.312a.7.7,0,0,0-.988,0l-4.288,4.288a.7.7,0,0,0,0,.988l1.251,1.25a.7.7,0,0,1,.119.825,13.026,13.026,0,0,0-.768,1.8.7.7,0,0,1-.663.484h-1.744a.7.7,0,0,0-.7.7v6.061a.7.7,0,0,0,.7.7h1.626a.7.7,0,0,1,.668.5,13.133,13.133,0,0,0,.763,1.916.7.7,0,0,1-.125.811l-1.128,1.128a.7.7,0,0,0,0,.987l4.288,4.288a.7.7,0,0,0,.988,0l1.067-1.067a.7.7,0,0,1,.825-.118,12.781,12.781,0,0,0,1.97.824.7.7,0,0,1,.5.665v1.5a.7.7,0,0,0,.7.7h6.061a.7.7,0,0,0,.7-.7v-1.5a.7.7,0,0,1,.495-.665,12.857,12.857,0,0,0,1.971-.825.7.7,0,0,1,.824.119l1.068,1.067a.7.7,0,0,0,.987,0l4.288-4.288a.7.7,0,0,0,0-.988l-1.127-1.127a.7.7,0,0,1-.126-.811,13.135,13.135,0,0,0,.764-1.916.7.7,0,0,1,.668-.5h1.626A.7.7,0,0,0,3041.687,2922.207Zm-8.841-1.282a7.1,7.1,0,0,1-.758,1.98,7.228,7.228,0,0,1-2.538,2.612,7.491,7.491,0,0,1-1.865.8,7.329,7.329,0,0,1-3.726,0,7.163,7.163,0,0,1-4.4-3.41,7.243,7.243,0,0,1-.93-3.548,7.213,7.213,0,0,1,3.467-6.16,7.262,7.262,0,0,1,2.164-.861,6.966,6.966,0,0,1,1.561-.173,7.047,7.047,0,0,1,1.567.173,7.174,7.174,0,0,1,5.632,7.021A7.025,7.025,0,0,1,3032.846,2920.925Z" transform="translate(-3009.959 -2903.313)" fill="#4084f3"/>
      </g>
    </g>
    <g id="Group_1833" data-name="Group 1833" transform="translate(2368.754 1301.296)" opacity="0.07">
      <g id="Group_1832" data-name="Group 1832" transform="translate(0)">
        <path id="Path_5100" data-name="Path 5100" d="M2489.605,2267.362v-10.7a1.232,1.232,0,0,0-1.232-1.232h-3.078a1.241,1.241,0,0,1-1.17-.855,22.965,22.965,0,0,0-1.355-3.171,1.241,1.241,0,0,1,.21-1.456l2.208-2.208a1.232,1.232,0,0,0,0-1.743l-7.569-7.569a1.231,1.231,0,0,0-1.743,0l-2.316,2.316a1.234,1.234,0,0,1-1.426.22,22.782,22.782,0,0,0-3.079-1.25,1.235,1.235,0,0,1-.869-1.17v-3.3a1.232,1.232,0,0,0-1.232-1.232h-10.7a1.233,1.233,0,0,0-1.233,1.232v3.3a1.235,1.235,0,0,1-.869,1.17,22.769,22.769,0,0,0-3.079,1.25,1.234,1.234,0,0,1-1.426-.22l-2.316-2.316a1.231,1.231,0,0,0-1.743,0l-7.569,7.569a1.232,1.232,0,0,0,0,1.743l2.208,2.208a1.241,1.241,0,0,1,.21,1.456,22.966,22.966,0,0,0-1.355,3.171,1.241,1.241,0,0,1-1.17.855h-3.078a1.232,1.232,0,0,0-1.232,1.232v10.7a1.232,1.232,0,0,0,1.232,1.232h2.87a1.241,1.241,0,0,1,1.179.887,23.146,23.146,0,0,0,1.348,3.382,1.239,1.239,0,0,1-.222,1.431l-1.99,1.99a1.232,1.232,0,0,0,0,1.743l7.569,7.568a1.232,1.232,0,0,0,1.743,0l1.884-1.883a1.239,1.239,0,0,1,1.455-.209,22.488,22.488,0,0,0,3.477,1.455,1.24,1.24,0,0,1,.874,1.174v2.648a1.233,1.233,0,0,0,1.233,1.232h10.7a1.233,1.233,0,0,0,1.232-1.232v-2.649a1.238,1.238,0,0,1,.873-1.174,22.73,22.73,0,0,0,3.479-1.455,1.239,1.239,0,0,1,1.455.209l1.884,1.884a1.232,1.232,0,0,0,1.743,0l7.569-7.568a1.232,1.232,0,0,0,0-1.743l-1.99-1.99a1.239,1.239,0,0,1-.223-1.431,23.146,23.146,0,0,0,1.348-3.382,1.241,1.241,0,0,1,1.18-.887h2.87A1.232,1.232,0,0,0,2489.605,2267.362ZM2474,2265.1a12.562,12.562,0,0,1-1.337,3.5,12.77,12.77,0,0,1-4.479,4.61,13.249,13.249,0,0,1-3.293,1.408,12.907,12.907,0,0,1-6.576,0,12.636,12.636,0,0,1-7.771-6.018,12.781,12.781,0,0,1-1.642-6.262,12.729,12.729,0,0,1,6.12-10.872,12.818,12.818,0,0,1,3.82-1.52,12.287,12.287,0,0,1,2.756-.3,12.441,12.441,0,0,1,2.766.3,12.659,12.659,0,0,1,9.94,12.391A12.449,12.449,0,0,1,2474,2265.1Z" transform="translate(-2433.604 -2234.013)" fill="#4084f3"/>
      </g>
    </g>
  </g>
</svg>
